<svg xmlns="http://www.w3.org/2000/svg" width="549.616" height="438.804" viewBox="0 0 549.616 438.804">
  <g id="Grupo_53890" data-name="Grupo 53890" opacity="0.7">
    <path id="Trazado_100745" data-name="Trazado 100745" d="M94.863,286.132C107.5,165.847-65.345,137.837-195.6,158.923c-112.4,18.2-233.661,103.364-219.99,157.763,13.485,53.658,88.113,9.1,118.015,78.541,31.041,72.091,9.609,76.747,17.643,137.414,3.278,24.756,23.3,67.214,74,57.157C-121.343,573.018,74.688,439.57,94.863,286.132Z" transform="translate(425.216 -152.507)" fill="#fff2cc"/>
    <path id="Trazado_100746" data-name="Trazado 100746" d="M-323.41,380.723c15.532-7.609,32.56-37.135-16.815-84.213-28.554-27.226-59.959-30.419-77.655-12.532-15.524,15.69,26.755,34.187,39.166,52.7C-357.593,368.183-347.258,392.4-323.41,380.723Z" transform="translate(421.26 -49.384)" fill="#fff2cc"/>
    <path id="Trazado_100897" data-name="Trazado 100897" d="M97.85,107.912c15.532-7.609,32.56-37.135-16.815-84.213C52.481-3.527,21.076-6.72,3.38,11.167c-15.524,15.69,26.755,34.187,39.166,52.7C63.667,95.372,74,119.592,97.85,107.912Z" transform="matrix(0.105, 0.995, -0.995, 0.105, 537.723, 250.412)" fill="#fff2cc"/>
  </g>
</svg>
