<svg id="Grupo_90036" data-name="Grupo 90036" xmlns="http://www.w3.org/2000/svg" width="25.964" height="25.964" viewBox="0 0 25.964 25.964">
  <path id="Trazado_153653" data-name="Trazado 153653" d="M20.285,0H5.68A5.68,5.68,0,0,0,0,5.68v14.6a5.68,5.68,0,0,0,5.68,5.68h14.6a5.68,5.68,0,0,0,5.68-5.68V5.68A5.68,5.68,0,0,0,20.285,0Z" fill="#c8414b"/>
  <rect id="Rectángulo_31997" data-name="Rectángulo 31997" width="25.964" height="15.15" transform="translate(0 5.407)" fill="#ffd250"/>
  <path id="Trazado_153654" data-name="Trazado 153654" d="M215.129,218.72l.419-1.707a.259.259,0,0,0-.271-.306h-.295a.259.259,0,0,0-.271.306Z" transform="translate(-203.816 -205.716)" fill="#c8414b"/>
  <rect id="Rectángulo_31998" data-name="Rectángulo 31998" width="0.988" height="3.803" transform="translate(10.819 12.108)" fill="#f5f5f5"/>
  <rect id="Rectángulo_31999" data-name="Rectángulo 31999" width="1.481" height="0.447" transform="translate(10.573 11.661)" fill="#fab446"/>
  <g id="Grupo_90028" data-name="Grupo 90028" transform="translate(3.482 10.99)">
    <rect id="Rectángulo_32000" data-name="Rectángulo 32000" width="2.469" height="0.447" transform="translate(6.103 2.013)" fill="#c8414b"/>
    <path id="Trazado_153655" data-name="Trazado 153655" d="M209.968,274.954l-1.481-.447v-.447l1.481.447Z" transform="translate(-201.396 -271.151)" fill="#c8414b"/>
    <path id="Trazado_153656" data-name="Trazado 153656" d="M69.085,218.72l.419-1.707a.259.259,0,0,0-.271-.306h-.295a.259.259,0,0,0-.271.306Z" transform="translate(-68.66 -216.706)" fill="#c8414b"/>
  </g>
  <path id="Trazado_153657" data-name="Trazado 153657" d="M101.882,229.941a.472.472,0,0,0-.494.447V233.3c0,.544.56,1.566,2.469,1.566s2.469-1.022,2.469-1.566v-2.908a.472.472,0,0,0-.494-.447Z" transform="translate(-96.246 -218.28)" fill="#f5f5f5"/>
  <g id="Grupo_90029" data-name="Grupo 90029" transform="translate(5.141 11.661)">
    <path id="Trazado_153658" data-name="Trazado 153658" d="M103.856,232.178h-2.469v-1.767a.47.47,0,0,1,.47-.47h2Z" transform="translate(-101.387 -229.941)" fill="#c8414b"/>
    <path id="Trazado_153659" data-name="Trazado 153659" d="M150.069,274.059h2.469v1.062a1.175,1.175,0,0,1-1.175,1.175h-.119a1.175,1.175,0,0,1-1.175-1.175v-1.062Z" transform="translate(-147.6 -271.822)" fill="#c8414b"/>
  </g>
  <path id="Trazado_153660" data-name="Trazado 153660" d="M101.387,274.059h2.469v1.062a1.175,1.175,0,0,1-1.175,1.175h-.119a1.175,1.175,0,0,1-1.175-1.175Z" transform="translate(-96.246 -260.161)" fill="#fab446"/>
  <g id="Grupo_90030" data-name="Grupo 90030" transform="translate(5.635 13.898)">
    <path id="Trazado_153661" data-name="Trazado 153661" d="M131.091,276.068v-2.009H130.6v2.215A1.285,1.285,0,0,0,131.091,276.068Z" transform="translate(-129.609 -274.059)" fill="#c8414b"/>
    <path id="Trazado_153662" data-name="Trazado 153662" d="M111.618,276.274v-2.215h-.494v2.009A1.285,1.285,0,0,0,111.618,276.274Z" transform="translate(-111.124 -274.059)" fill="#c8414b"/>
  </g>
  <rect id="Rectángulo_32001" data-name="Rectángulo 32001" width="1.481" height="0.447" transform="translate(5.635 13.003)" fill="#ffb441"/>
  <g id="Grupo_90031" data-name="Grupo 90031" transform="translate(5.635 12.108)">
    <rect id="Rectángulo_32002" data-name="Rectángulo 32002" width="1.481" height="0.447" fill="#fab446"/>
    <rect id="Rectángulo_32003" data-name="Rectángulo 32003" width="0.988" height="0.811" transform="translate(0.247 0.266)" fill="#fab446"/>
  </g>
  <rect id="Rectángulo_32004" data-name="Rectángulo 32004" width="0.988" height="3.803" transform="translate(3.413 12.108)" fill="#f5f5f5"/>
  <g id="Grupo_90032" data-name="Grupo 90032" transform="translate(3.166 11.661)">
    <rect id="Rectángulo_32005" data-name="Rectángulo 32005" width="1.481" height="0.447" transform="translate(0 4.027)" fill="#fab446"/>
    <rect id="Rectángulo_32006" data-name="Rectángulo 32006" width="1.481" height="0.447" fill="#fab446"/>
  </g>
  <rect id="Rectángulo_32007" data-name="Rectángulo 32007" width="1.975" height="0.447" transform="translate(2.919 16.135)" fill="#5064aa"/>
  <rect id="Rectángulo_32008" data-name="Rectángulo 32008" width="1.481" height="0.447" transform="translate(10.819 15.688)" fill="#fab446"/>
  <rect id="Rectángulo_32009" data-name="Rectángulo 32009" width="1.975" height="0.447" transform="translate(10.326 16.135)" fill="#5064aa"/>
  <rect id="Rectángulo_32010" data-name="Rectángulo 32010" width="2.963" height="0.447" transform="translate(6.129 11.213)" fill="#fab446"/>
  <rect id="Rectángulo_32011" data-name="Rectángulo 32011" width="0.494" height="1.342" transform="translate(7.363 9.871)" fill="#ffb441"/>
  <g id="Grupo_90033" data-name="Grupo 90033" transform="translate(5.388 9.2)">
    <path id="Trazado_153663" data-name="Trazado 153663" d="M126.47,182.754a.674.674,0,1,1,.741-.671A.709.709,0,0,1,126.47,182.754Zm0-.895a.225.225,0,1,0,.247.224A.236.236,0,0,0,126.47,181.859Z" transform="translate(-124.741 -181.412)" fill="#f5f5f5"/>
    <path id="Trazado_153664" data-name="Trazado 153664" d="M145.942,182.754a.674.674,0,1,1,.741-.671A.709.709,0,0,1,145.942,182.754Zm0-.895a.225.225,0,1,0,.247.224A.236.236,0,0,0,145.942,181.859Z" transform="translate(-143.226 -181.412)" fill="#f5f5f5"/>
    <path id="Trazado_153665" data-name="Trazado 153665" d="M165.415,191.578a.674.674,0,1,1,.741-.671A.709.709,0,0,1,165.415,191.578Zm0-.895a.225.225,0,1,0,.247.224A.236.236,0,0,0,165.415,190.683Z" transform="translate(-161.712 -189.789)" fill="#f5f5f5"/>
    <path id="Trazado_153666" data-name="Trazado 153666" d="M107,191.578a.674.674,0,1,1,.741-.671A.709.709,0,0,1,107,191.578Zm0-.895a.225.225,0,1,0,.247.224A.236.236,0,0,0,107,190.683Z" transform="translate(-106.256 -189.789)" fill="#f5f5f5"/>
  </g>
  <path id="Trazado_153667" data-name="Trazado 153667" d="M160.793,283.329v.224a.248.248,0,0,1-.494,0v-.224h.494m.494-.447H159.8v.671a.744.744,0,0,0,1.481,0v-.671Z" transform="translate(-151.701 -268.537)" fill="#fab446"/>
  <path id="Trazado_153668" data-name="Trazado 153668" d="M165.19,240.106h-.047a.47.47,0,0,1-.47-.47v-.4a.47.47,0,0,1,.47-.47h.047a.47.47,0,0,1,.47.47v.4A.47.47,0,0,1,165.19,240.106Z" transform="translate(-156.322 -226.656)" fill="#ffa0d2"/>
  <ellipse id="Elipse_521" data-name="Elipse 521" cx="0.741" cy="0.671" rx="0.741" ry="0.671" transform="translate(6.87 13.227)" fill="#5064aa"/>
  <rect id="Rectángulo_32012" data-name="Rectángulo 32012" width="0.494" height="1.342" transform="translate(7.363 8.976)" fill="#fab446"/>
  <path id="Trazado_153669" data-name="Trazado 153669" d="M111.618,195.989l-.494-.447.289-.262a2.515,2.515,0,0,1,1.686-.633h0a2.515,2.515,0,0,1,1.686.633l.289.262-.494.447Z" transform="translate(-105.489 -184.776)" fill="#c8414b"/>
  <g id="Grupo_90034" data-name="Grupo 90034" transform="translate(6.376 10.542)">
    <ellipse id="Elipse_522" data-name="Elipse 522" cx="0.247" cy="0.224" rx="0.247" ry="0.224" transform="translate(0.987)" fill="#ffd250"/>
    <ellipse id="Elipse_523" data-name="Elipse 523" cx="0.247" cy="0.224" rx="0.247" ry="0.224" fill="#ffd250"/>
    <ellipse id="Elipse_524" data-name="Elipse 524" cx="0.247" cy="0.224" rx="0.247" ry="0.224" transform="translate(1.975)" fill="#ffd250"/>
  </g>
  <g id="Grupo_90035" data-name="Grupo 90035" transform="translate(3.166 13.003)">
    <rect id="Rectángulo_32013" data-name="Rectángulo 32013" width="2.469" height="0.447" fill="#c8414b"/>
    <path id="Trazado_153670" data-name="Trazado 153670" d="M62.442,274.954l1.481-.447v-.447l-1.481.447Z" transform="translate(-62.442 -273.164)" fill="#c8414b"/>
  </g>
</svg>
