<svg xmlns="http://www.w3.org/2000/svg" xmlns:xlink="http://www.w3.org/1999/xlink" width="229.777" height="132.665" viewBox="0 0 229.777 132.665">
  <defs>
    <clipPath id="clip-path">
      <ellipse id="Elipse_5021" data-name="Elipse 5021" cx="114.889" cy="66.332" rx="114.889" ry="66.332" fill="none"/>
    </clipPath>
  </defs>
  <g id="_4" data-name="4" transform="translate(0 0)">
    <ellipse id="Elipse_5020" data-name="Elipse 5020" cx="114.889" cy="66.332" rx="114.889" ry="66.332" fill="#a38978"/>
    <path id="Trazado_149711" data-name="Trazado 149711" d="M346.46,235.652c-22.04-2.364-43.116-8.456-60.165-18.3s-27.6-22.012-31.694-34.737Zm133.126-79.805c-4.607-11.837-14.857-23.089-30.815-32.3s-35.447-15.132-55.948-17.791Z" transform="translate(-252.644 -104.117)" fill="#a1aa2b"/>
  </g>
  <g id="Grupo_104196" data-name="Grupo 104196">
    <g id="Grupo_93671" data-name="Grupo 93671" clip-path="url(#clip-path)">
      <g id="Grupo_93669" data-name="Grupo 93669" transform="translate(-13.746 -9.279)">
        <path id="Trazado_149712" data-name="Trazado 149712" d="M480.472,184.051l-.669.386L330.309,98.127l.669-.386Z" transform="translate(-211.471 -97.74)" fill="#e5b555"/>
        <path id="Trazado_149713" data-name="Trazado 149713" d="M478.658,185.1l-.669.386L328.5,99.174l.669-.386Z" transform="translate(-212.128 -97.361)" fill="#e5b555"/>
        <path id="Trazado_149714" data-name="Trazado 149714" d="M395.051,233.369l-.669.386-149.494-86.31.669-.386Z" transform="translate(-242.417 -79.873)" fill="#e5b555"/>
        <path id="Trazado_149715" data-name="Trazado 149715" d="M393.237,234.416l-.669.386-149.494-86.31.669-.386Z" transform="translate(-243.074 -79.494)" fill="#e5b555"/>
        <path id="Trazado_149716" data-name="Trazado 149716" d="M398.9,139.393l1.4.806-.018,10.129-1.4-.806Zm3.487,12.152,1.4.806.018-10.127-1.4-.808Zm3.505,2.024,1.4.806.018-10.129-1.4-.806Zm3.505,2.023,1.4.808.018-10.129-1.4-.808Zm3.505,2.024,1.4.806.018-10.129-1.4-.806Zm3.5,2.023,1.4.808.018-10.129-1.4-.808Zm3.505,2.024,1.4.806.018-10.129-1.4-.806Zm3.505,2.023,1.4.808.018-10.129-1.4-.808Zm3.505,2.024,1.4.806.019-10.129-1.4-.806Zm3.505,2.023,1.4.808.019-10.129-1.4-.808Zm3.505,2.024,1.4.806.019-10.129-1.4-.806Z" transform="translate(-186.628 -82.65)" fill="#e5b555"/>
        <path id="Trazado_149717" data-name="Trazado 149717" d="M352.518,181.89l2.545-.3,4.812,2.763-.508,1.466-3.328,1.922-2.542.294-2.17-1.245,1.84-1.064,1.365.783,2.7-1.557-3.2-1.836-4.275,2.468-5.681-3.261,5.983-3.453,1.821,1.045-4.141,2.391,2.034,1.169Zm-16.64,6.253,8.743,5.019,2.542-.294,3.592-2.073.5-1.464-8.743-5.02-2.539.3-3.591,2.073Zm12.735,1.787-2.956,1.707-7.132-4.1,2.956-1.707,7.131,4.1Zm-12.834,9.422,1.813-1.046L336,196.586l3.447-1.99,2.987.915,1.817-1.049-13.917-4.2-1.892,1.093Zm-1.049-4.13-2.684-2.874c.025-.014,5.012,1.53,5.012,1.53l-2.328,1.345Z" transform="translate(-212.148 -68.348)" fill="#e5b555"/>
      </g>
      <g id="Grupo_93670" data-name="Grupo 93670" transform="translate(0 -14.225)">
        <path id="Trazado_149718" data-name="Trazado 149718" d="M353.073,174.655,363.9,168.4l-12.216-7.053-27.241,15.728.442.255-10.826,6.25,12.216,7.053,2.59-1.5,1.878,1.084,6.05-3.493-1.878-1.084,18.6-10.74Z" transform="translate(-231.107 -67.749)" fill="#a38978" opacity="0.6" style="mix-blend-mode: multiply;isolation: isolate"/>
        <path id="Trazado_149719" data-name="Trazado 149719" d="M372.768,176.276,358.7,184.4l-9.321-5.382,14.069-8.123Z" transform="translate(-218.312 -64.292)" fill="#a38978" opacity="0.6" style="mix-blend-mode: multiply;isolation: isolate"/>
      </g>
    </g>
  </g>
</svg>
