<svg xmlns="http://www.w3.org/2000/svg" xmlns:xlink="http://www.w3.org/1999/xlink" width="399.919" height="391.731" viewBox="0 0 399.919 391.731">
  <defs>
    <linearGradient id="linear-gradient" x1="7.171" y1="6.386" x2="1.817" y2="1.816" gradientUnits="objectBoundingBox">
      <stop offset="0" stop-color="#5038a1"/>
      <stop offset="1" stop-color="#8c6df2"/>
    </linearGradient>
    <linearGradient id="linear-gradient-2" x1="1.164" y1="1.042" x2="0.24" y2="-0.075" xlink:href="#linear-gradient"/>
    <linearGradient id="linear-gradient-3" x1="2.031" y1="1.172" x2="0.995" y2="0.63" xlink:href="#linear-gradient"/>
    <linearGradient id="linear-gradient-4" x1="1.472" y1="1.633" x2="0.538" y2="0.688" xlink:href="#linear-gradient"/>
  </defs>
  <g id="Grupo_61499" data-name="Grupo 61499" transform="translate(-329.95 -190.208)">
    <g id="Grupo_61497" data-name="Grupo 61497" transform="translate(329.95 190.208)">
      <path id="Trazado_108073" data-name="Trazado 108073" d="M998.662,341.655s-5.695.98-5.695,4.761,1.9,10.425,1.9,10.425l1.9,7.119,5.546,4.746,2.047-2.816a9.783,9.783,0,0,1,4.271-2.246c7.068-.851,7.118-2.925,7.118-2.925l6.169-3.4s2.373-4.746,0-6.17-9.228-5.695-9.834-5.695-3.928-9.017-3.928-9.017l-6.961-9.492s-4.9,3.934-3.955,6.476,2.373,3.49,1.9,5.863Z" transform="translate(-736.491 -274.049)" fill="url(#linear-gradient)"/>
      <path id="Trazado_108074" data-name="Trazado 108074" d="M1100.064,667.259a199.3,199.3,0,0,1-58.342,141.162c-2.648-10.893-3.052-17.374-6.9-23.536-3.964-6.351-25.026-36.571-25.026-36.571s-29.424-2-33.4-3.587-24.651-3.168-24.651-3.168-13.512-11.139-16.694-23.074c-3.182-11.92-.853-6.119,7.942-19.081,4.05-5.945,0,0,11.935-14.307,11.935-14.322,8.68-12.036,11.269-14.452,2.965-2.763,21.193.13,21.193.13l6.77-1.331s2.517-.26,16.433-9,31.406-1.591,47.319-4.383,19.877-4.369,34.184-8.738a66.378,66.378,0,0,0,6.727-2.372A199.533,199.533,0,0,1,1100.064,667.259Z" transform="translate(-700.145 -469.042)" fill="url(#linear-gradient-2)"/>
      <path id="Trazado_108075" data-name="Trazado 108075" d="M472.775,609.767c6.77,11.993,9.692,13.728,8.651,17.475-.94,3.371-.535,13.5-.448,15.494a2.9,2.9,0,0,1-.029.709c-.232,1.779-1.3,9.851-1.577,12.629A200.418,200.418,0,0,1,344.937,538.651c.42-5.613.911-12.152,1.071-14.264a4.437,4.437,0,0,0-.116-1.3,47.111,47.111,0,0,1-1.1-13.265c.362-9-5.41-9.591-5.222-11.877s-3.486-7.913-2.835-13.222c.463-3.732-3.341-4.383-5.642-4.441a2.851,2.851,0,0,1-.362-.029q-.782-8.745-.781-17.693a199.524,199.524,0,0,1,69.38-151.447,39.252,39.252,0,0,0-4.846,18.575c.029,1.244,1.258,2.589,1.938,3.689a3.937,3.937,0,0,0,2.416,1.852c2.257.578,5.714,1.692,6.915,2.083a4.526,4.526,0,0,0,.882.174l16.868,1.461a3.958,3.958,0,0,0,3.385-1.432l3.733-4.5c3.4-4.094,5.786-2.445,7-.9a3.969,3.969,0,0,0,3.038,1.533l24.317.55,6.38.477a8.448,8.448,0,0,1,7.117,4.991l2.242,4.948a10.682,10.682,0,0,1-1.172,10.762L467.1,372.232a3.723,3.723,0,0,0-.622,1.244l-6.032,20.5A3.972,3.972,0,0,1,454.229,396c-3.616-2.792-8.26-7.508-10.054-14.206-.492-1.909-3.457-1.2-4.9-.738a3.848,3.848,0,0,1-1.765.188c-2.734-.376-10.661-1.707-15.117-4.861a26.9,26.9,0,0,1-7.045-8.347,3.937,3.937,0,0,0-5.295-1.5l-18.011,9.606a3.943,3.943,0,0,0-1.924,4.7c.492,1.562,1.042,3.183,1.62,4.8a4.045,4.045,0,0,0,2.531,2.445c2.011.665,5.28,2.083,6.9,2.806a3.858,3.858,0,0,1,1.577,1.273c1.635,2.228,6.076,8.289,7.971,10.893.969,1.345,2.011,3.082,2.922,4.673a3.985,3.985,0,0,0,5.7,1.287,22.676,22.676,0,0,1,11.617-4.051c9.215-.448,0,0,6.336,7.363,5.757,6.7.217,12.441-.854,13.425-.1.1-.2.173-.3.26l-22.567,16.854c-.651,1.5-7.595,2-14.842,9.055s-15.609,6.423-19.877,12.224-8.709,3.993-12.065,7.928c-3.37,3.92-9.967-2.431-10.647,6.7-.695,9.128,1.88,6.857.506,10.951-2.951,8.766,1.924,12.586,2.633,13.4s.015,1.924,2.011,8.766-.752,5.613,1.88,13.352,9.157,8.318,11.168,10.169c2,1.852,2.575,3.255,6.987,5.743s11.877-5.454,17.215-3.935c5.324,1.548,8.145.261,11.515.868,2.56.478,2.879-1.663,10.56-.593,15.334,2.141,8.55.868,15.334,2.141s10.532-4.282,15.059,3.429,23.262,26.242,24.52,30.176,3.11-.535,1.244,3.92-1.3,6.785-2.618,14.351S466.005,597.774,472.775,609.767Z" transform="translate(-329.95 -264.342)" fill="url(#linear-gradient-3)"/>
      <path id="Trazado_108076" data-name="Trazado 108076" d="M1077.659,322.14a18.992,18.992,0,0,0-4.065-5.57c-6.163-5.121-6.163-1.027-5.845,2.936.651,8.261,6.684,10.908,2.474,13.295-4.21,2.358-4.687.94-8.491-6.409s1.432-11.153-2.85-15.436c-4.253-4.253-2.372-13.425-11.848-9.33-9.5,4.123-18.994,14.553-15.19,19.3s8.058,19.168,14.235,22.64,11.385,7.262,5.685,7.739-7.117,15.19-9.012,10.922,3.327-6.64-2.85-15.19-25.62-27.529-28.947-27.529-13.28.477-17.084,4.745-8.058,8.911-9.012,11.342c-.955,2.415-.477,4.326,0,13.338s6.64,18.98,4.745,22.77-.477,8.549-9.953,7.132c-9.5-1.432-24.838,12.8-23.739-21.829.651-20.759,3.313-23.74,5.208-30.611,1.91-6.886,3.342-11.153.492-18.285s.463-23.667,8.058-26.068,6.177,1,11.863,0c5.7-.969,12.817-.81,16.144-5.164s7.117-7.233,9.475-7.45c2.387-.217,0-1.2,4.282,0s10.444,1.9,10.907-.593c.478-2.473-1.9-4.846-1.9-6.756,0-1.548,1.273-5.656,4.08-7.088-1.143-7-4.253-15.927-12.629-18.112-14.307-3.7-24.911-13.656-27.558-15.045s-2.661-7.739-5.309-9.866-27.573-5.309-27.573-5.309L934.5,199.77l-18.994-9.562A200.2,200.2,0,0,1,1077.659,322.14Z" transform="translate(-688.995 -190.208)" fill="url(#linear-gradient-4)"/>
    </g>
    <path id="Trazado_108077" data-name="Trazado 108077" d="M1243.492,330.537a10.575,10.575,0,1,0-21.15,0c0,.2.007.4.018.6h-.018c0,8.051,10.574,20.669,10.574,20.669s10.575-12.618,10.575-20.669h-.018C1243.485,330.939,1243.492,330.739,1243.492,330.537Zm-10.575,6.851a6.851,6.851,0,1,1,6.851-6.851A6.851,6.851,0,0,1,1232.917,337.388Z" transform="translate(-547.186 -79.561)" fill="#f52c72"/>
    <path id="Trazado_108078" data-name="Trazado 108078" d="M1027.921,775.727a10.575,10.575,0,0,0-21.15,0c0,.2.007.4.018.6h-.018c0,8.051,10.575,20.669,10.575,20.669s10.575-12.618,10.575-20.669h-.018C1027.914,776.129,1027.921,775.929,1027.921,775.727Zm-10.575,6.851a6.851,6.851,0,1,1,6.851-6.851A6.851,6.851,0,0,1,1017.346,782.578Z" transform="translate(-415.005 -352.537)" fill="#5fff19"/>
    <path id="Trazado_108079" data-name="Trazado 108079" d="M547.312,511.81a10.575,10.575,0,1,0-21.149,0c0,.2.007.4.018.6h-.018c0,8.052,10.574,20.669,10.574,20.669s10.575-12.618,10.575-20.669h-.018C547.305,512.212,547.312,512.012,547.312,511.81Zm-10.575,6.851a6.851,6.851,0,1,1,6.851-6.851A6.851,6.851,0,0,1,536.737,518.661Z" transform="translate(-120.312 -190.712)" fill="#f55c2c"/>
    <path id="Trazado_108080" data-name="Trazado 108080" d="M429.539,344.051a10.575,10.575,0,0,0-21.15,0c0,.2.007.4.018.6h-.018c0,8.052,10.575,20.669,10.575,20.669s10.575-12.617,10.575-20.669h-.018C429.532,344.453,429.539,344.252,429.539,344.051ZM418.964,350.9a6.851,6.851,0,1,1,6.85-6.851A6.851,6.851,0,0,1,418.964,350.9Z" transform="translate(-48.096 -87.847)" fill="#5038a1"/>
    <path id="Trazado_108081" data-name="Trazado 108081" d="M1102.806,375.585a10.575,10.575,0,1,0-21.15,0c0,.2.007.4.018.6h-.018c0,8.052,10.575,20.669,10.575,20.669s10.575-12.618,10.575-20.669h-.018C1102.8,375.987,1102.806,375.786,1102.806,375.585Zm-10.575,6.851a6.851,6.851,0,1,1,6.851-6.851A6.851,6.851,0,0,1,1092.231,382.436Z" transform="translate(-460.922 -107.183)" fill="#06f0de"/>
  </g>
</svg>
