<svg xmlns="http://www.w3.org/2000/svg" xmlns:xlink="http://www.w3.org/1999/xlink" width="229.777" height="184.2" viewBox="0 0 229.777 184.2">
  <defs>
    <clipPath id="clip-path">
      <ellipse id="Elipse_5021" data-name="Elipse 5021" cx="114.889" cy="66.332" rx="114.889" ry="66.332" fill="none"/>
    </clipPath>
    <linearGradient id="linear-gradient" x1="-3.92" y1="0.218" x2="-3.826" y2="0.473" gradientUnits="objectBoundingBox">
      <stop offset="0" stop-color="#f4f3eb"/>
      <stop offset="0.209" stop-color="#f0efe6"/>
      <stop offset="0.419" stop-color="#e4e3da"/>
      <stop offset="0.63" stop-color="#d1d0c6"/>
      <stop offset="0.762" stop-color="#c1c0b6"/>
      <stop offset="0.949" stop-color="#c4c3b9"/>
      <stop offset="1" stop-color="#c7c6bc"/>
    </linearGradient>
    <linearGradient id="linear-gradient-2" x1="0.675" y1="0.227" x2="0.582" y2="0.477" gradientUnits="objectBoundingBox">
      <stop offset="0" stop-color="#cb4333"/>
      <stop offset="0.348" stop-color="#b53627"/>
      <stop offset="0.703" stop-color="#a72d1f"/>
      <stop offset="1" stop-color="#a22b1d"/>
    </linearGradient>
    <linearGradient id="linear-gradient-3" x1="1.56" y1="-1.517" x2="1.368" y2="-1.085" gradientUnits="objectBoundingBox">
      <stop offset="0" stop-color="#f4f3eb"/>
      <stop offset="0.501" stop-color="#d7d6cc"/>
      <stop offset="0.954" stop-color="#c1c0b6"/>
    </linearGradient>
    <linearGradient id="linear-gradient-4" x1="3.55" y1="-3.549" x2="3.027" y2="-2.661" gradientUnits="objectBoundingBox">
      <stop offset="0" stop-color="#f4f3eb"/>
      <stop offset="0.274" stop-color="#f0efe6"/>
      <stop offset="0.55" stop-color="#e4e3da"/>
      <stop offset="0.826" stop-color="#d1d0c6"/>
      <stop offset="1" stop-color="#c1c0b6"/>
    </linearGradient>
    <linearGradient id="linear-gradient-5" x1="0.643" y1="0.266" x2="0.353" y2="0.733" gradientUnits="objectBoundingBox">
      <stop offset="0" stop-color="#121211"/>
      <stop offset="0.696" stop-color="#1b1b19"/>
      <stop offset="1" stop-color="#21211f"/>
    </linearGradient>
    <linearGradient id="linear-gradient-6" x1="38.242" y1="-21.271" x2="38.192" y2="-20.558" xlink:href="#linear-gradient"/>
    <linearGradient id="linear-gradient-7" x1="2.842" y1="-0.564" x2="2.998" y2="-1.844" gradientUnits="objectBoundingBox">
      <stop offset="0"/>
      <stop offset="0.126" stop-color="#171717"/>
      <stop offset="0.393" stop-color="#555552"/>
      <stop offset="0.775" stop-color="#b7b6b0"/>
      <stop offset="1" stop-color="#f4f3eb"/>
    </linearGradient>
    <linearGradient id="linear-gradient-8" x1="0.25" y1="0.165" x2="0.75" y2="0.835" gradientUnits="objectBoundingBox">
      <stop offset="0" stop-color="#818077"/>
      <stop offset="0.079" stop-color="#838279"/>
      <stop offset="0.554" stop-color="#908f85"/>
      <stop offset="1" stop-color="#959489"/>
    </linearGradient>
    <linearGradient id="linear-gradient-9" x1="38.547" y1="-20.641" x2="38.496" y2="-19.927" xlink:href="#linear-gradient"/>
    <linearGradient id="linear-gradient-10" x1="2.6" y1="-0.278" x2="2.756" y2="-1.557" xlink:href="#linear-gradient-7"/>
    <linearGradient id="linear-gradient-11" x1="0.25" y1="0.165" x2="0.75" y2="0.835" xlink:href="#linear-gradient-8"/>
    <linearGradient id="linear-gradient-12" x1="0.719" y1="-0.789" x2="1.207" y2="0.677" gradientUnits="objectBoundingBox">
      <stop offset="0" stop-color="#e2e1d8"/>
      <stop offset="0.082" stop-color="#e7e6dd"/>
      <stop offset="0.304" stop-color="#f0efe7"/>
      <stop offset="0.583" stop-color="#f4f3eb"/>
      <stop offset="0.762" stop-color="#f1f0e8"/>
      <stop offset="0.888" stop-color="#e8e7df"/>
      <stop offset="0.996" stop-color="#dad9cf"/>
      <stop offset="1" stop-color="#dad9cf"/>
    </linearGradient>
    <linearGradient id="linear-gradient-13" x1="39.258" y1="-18.069" x2="39.207" y2="-17.355" xlink:href="#linear-gradient"/>
    <linearGradient id="linear-gradient-14" x1="1.563" y1="0.505" x2="1.719" y2="-0.774" xlink:href="#linear-gradient-7"/>
    <linearGradient id="linear-gradient-15" x1="0.25" y1="0.165" x2="0.75" y2="0.835" xlink:href="#linear-gradient-8"/>
    <linearGradient id="linear-gradient-16" x1="39.38" y1="-17.15" x2="39.329" y2="-16.436" xlink:href="#linear-gradient"/>
    <linearGradient id="linear-gradient-17" x1="1.178" y1="0.684" x2="1.334" y2="-0.595" xlink:href="#linear-gradient-7"/>
    <linearGradient id="linear-gradient-18" x1="0.25" y1="0.165" x2="0.75" y2="0.835" xlink:href="#linear-gradient-8"/>
    <linearGradient id="linear-gradient-19" x1="0.645" y1="0.266" x2="0.357" y2="0.733" xlink:href="#linear-gradient-5"/>
  </defs>
  <g id="Grupo_104197" data-name="Grupo 104197" transform="translate(0 51.536)">
    <g id="Grupo_93671" data-name="Grupo 93671" clip-path="url(#clip-path)">
      <g id="Grupo_93669" data-name="Grupo 93669" transform="translate(-13.746 -9.279)">
        <path id="Trazado_149713" data-name="Trazado 149713" d="M478.658,185.1l-.669.386Z" transform="translate(-212.128 -97.361)" fill="#e5b555"/>
        <path id="Trazado_149714" data-name="Trazado 149714" d="M244.888,147.444l.669-.386Z" transform="translate(-242.417 -79.873)" fill="#e5b555"/>
        <path id="Trazado_149715" data-name="Trazado 149715" d="M392.568,234.8l-149.494-86.31Z" transform="translate(-243.074 -79.494)" fill="#e5b555"/>
      </g>
      <g id="Grupo_93670" data-name="Grupo 93670" transform="translate(0 -14.225)">
        <path id="Trazado_149720" data-name="Trazado 149720" d="M468.791,97.489l-7.938-4.584a2.4,2.4,0,0,0-2.263.041l-90,57.641-27.63-15.952a93.015,93.015,0,0,0-19.267-8.379L342.2,108.017c.3-.278.243-.647-.15-.873l-3.765-2.174a1.853,1.853,0,0,0-1.755.045l-28.419,18.1-.4-.232a4.239,4.239,0,0,0-3.832,0,1.169,1.169,0,0,0,0,2.214l.308.177-31.157,16.509c-.525.264-.544.732-.05,1.016l3.754,2.167a1.875,1.875,0,0,0,1.5.09l31.116-11.83a59.744,59.744,0,0,0,14.312,11.39l27.536,15.9-97.505,51.448c-.672.345-.708.95-.072,1.316l7.938,4.584a2.428,2.428,0,0,0,1.941.11l113.92-42.319,31.7,18.3c4.775,2.756,17.847,7.178,23.785,3.749,6.089-3.515-1.721-10.976-6.5-13.732l-31.35-18.1L469,98.608C469.4,98.257,469.306,97.786,468.791,97.489Z" transform="translate(-253.167 -92.642)" fill="#674834" opacity="0.6" style="mix-blend-mode: multiply;isolation: isolate"/>
      </g>
    </g>
  </g>
  <g id="Grupo_93770" data-name="Grupo 93770">
    <g id="Grupo_93674" data-name="Grupo 93674" transform="translate(145.906 90.593)" style="isolation: isolate">
      <path id="Trazado_149721" data-name="Trazado 149721" d="M367.243,129.7a17.681,17.681,0,0,0-5.574,5.655,20.931,20.931,0,0,0-1.4,2.583l13.346,7.757a20.551,20.551,0,0,1,1.4-2.583,17.625,17.625,0,0,1,5.535-5.633C380.589,137.454,367.243,129.7,367.243,129.7Z" transform="translate(-360.268 -129.699)" fill="#edece3"/>
      <g id="Grupo_93673" data-name="Grupo 93673" transform="translate(13.346 7.755)">
        <path id="Trazado_149722" data-name="Trazado 149722" d="M377.04,135.392l.011.387a16.912,16.912,0,0,0-5.37,5.437,20.845,20.845,0,0,0-1.342,2.481l-.274-.065a20.557,20.557,0,0,1,1.4-2.583A17.625,17.625,0,0,1,377,135.415Z" transform="translate(-370.065 -135.392)" fill="#d0cfc8"/>
      </g>
    </g>
    <g id="Grupo_93676" data-name="Grupo 93676" transform="translate(92.78 59.92)" style="isolation: isolate">
      <path id="Trazado_149723" data-name="Trazado 149723" d="M328.245,107.183a17.672,17.672,0,0,0-5.574,5.656,20.558,20.558,0,0,0-1.4,2.583l13.346,7.755a20.647,20.647,0,0,1,1.4-2.583,17.624,17.624,0,0,1,5.535-5.633C341.591,114.94,328.245,107.183,328.245,107.183Z" transform="translate(-321.27 -107.183)" fill="#edece3"/>
      <g id="Grupo_93675" data-name="Grupo 93675" transform="translate(13.346 7.757)">
        <path id="Trazado_149724" data-name="Trazado 149724" d="M338.042,112.877l.011.387a16.907,16.907,0,0,0-5.37,5.436,20.686,20.686,0,0,0-1.342,2.482l-.274-.067a20.66,20.66,0,0,1,1.4-2.583A17.625,17.625,0,0,1,338,112.9Z" transform="translate(-331.067 -112.877)" fill="#d0cfc8"/>
      </g>
    </g>
    <g id="_12" data-name="12" transform="translate(15.62)">
      <g id="Grupo_93684" data-name="Grupo 93684" transform="translate(147.38 131.545)">
        <g id="Grupo_93678" data-name="Grupo 93678" transform="translate(1.899 2.381)">
          <path id="Trazado_149725" data-name="Trazado 149725" d="M375.571,162.4c-.568-.328-1.03-.064-1.033.589a2.263,2.263,0,0,0,1.026,1.776c.568.328,1.03.064,1.033-.589A2.263,2.263,0,0,0,375.571,162.4Z" transform="translate(-374.091 -161.235)" fill="#808083"/>
          <path id="Trazado_149726" data-name="Trazado 149726" d="M375.466,162.588a.613.613,0,0,0-.48-.089.6.6,0,0,0-.162.452,1.748,1.748,0,0,0,.794,1.375.374.374,0,0,0,.642-.365A1.748,1.748,0,0,0,375.466,162.588Z" transform="translate(-373.988 -161.154)" fill="#5e5e5e"/>
          <path id="Trazado_149727" data-name="Trazado 149727" d="M375.66,164.321a1.748,1.748,0,0,1-.794-1.375.609.609,0,0,1,.159-.451.508.508,0,0,0-.316.542,1.75,1.75,0,0,0,.794,1.375.512.512,0,0,0,.635,0A.609.609,0,0,1,375.66,164.321Z" transform="translate(-374.029 -161.149)" fill="#757575"/>
          <g id="Grupo_93677" data-name="Grupo 93677" transform="translate(0 0.449)">
            <path id="Trazado_149728" data-name="Trazado 149728" d="M375.694,162.04a3.25,3.25,0,0,1,1.475,2.554c0,.939-.668,1.317-1.485.846a3.254,3.254,0,0,1-1.474-2.554C374.213,161.947,374.878,161.569,375.694,162.04Zm-.007,2.842c.548.317.994.063,1-.568a2.178,2.178,0,0,0-.99-1.715c-.549-.317-.994-.063-1,.568a2.183,2.183,0,0,0,.992,1.715Z" transform="translate(-374.21 -161.837)" fill="#262626"/>
          </g>
          <path id="Trazado_149729" data-name="Trazado 149729" d="M377.575,163.155a3.536,3.536,0,0,0-.572-.9,2.629,2.629,0,0,0-.647-.545,1.041,1.041,0,0,0-1.052-.1l-.776.448a1.045,1.045,0,0,1,1.052.1,2.6,2.6,0,0,1,.647.544,3.584,3.584,0,0,1,.572.9,2.786,2.786,0,0,1,.256,1.11,1.034,1.034,0,0,1-.432.948l.776-.448a1.039,1.039,0,0,0,.432-.949A2.779,2.779,0,0,0,377.575,163.155Z" transform="translate(-374.095 -161.507)" fill="#333"/>
        </g>
        <g id="Grupo_93679" data-name="Grupo 93679" transform="translate(2.982 4.18)" style="isolation: isolate">
          <path id="Trazado_149730" data-name="Trazado 149730" d="M375.745,163.228a.862.862,0,0,0-.14-.219.643.643,0,0,0-.157-.132.255.255,0,0,0-.256-.025l-.11.064a.252.252,0,0,1,.256.026.642.642,0,0,1,.157.132.832.832,0,0,1,.139.219.676.676,0,0,1,.063.27.252.252,0,0,1-.1.23l.11-.065a.25.25,0,0,0,.1-.23A.7.7,0,0,0,375.745,163.228Z" transform="translate(-374.977 -162.828)" fill="#757575"/>
          <path id="Trazado_149731" data-name="Trazado 149731" d="M375.366,162.925c-.2-.114-.36-.023-.361.206a.793.793,0,0,0,.358.62c.2.114.361.023.361-.2A.79.79,0,0,0,375.366,162.925Z" transform="translate(-375.005 -162.811)" fill="#808083"/>
        </g>
        <g id="Grupo_93680" data-name="Grupo 93680" transform="translate(1.591 0)" style="isolation: isolate">
          <path id="Trazado_149732" data-name="Trazado 149732" d="M375.553,161.073l-.222,3.73a.511.511,0,0,1-.221.435l.817-.475a.512.512,0,0,0,.222-.435l.222-3.73Z" transform="translate(-373.576 -159.456)" fill="#808083"/>
          <path id="Trazado_149733" data-name="Trazado 149733" d="M374.8,159.76l-.818.475,1.977,1.141.818-.475Z" transform="translate(-373.984 -159.76)" fill="#a9aeae"/>
          <path id="Trazado_149734" data-name="Trazado 149734" d="M373.984,160.109l.244,4.822.745.429c.4.234.738.067.766-.38l.222-3.73Z" transform="translate(-373.984 -159.634)" fill="#5e5e5e"/>
        </g>
        <g id="Grupo_93682" data-name="Grupo 93682" transform="translate(0 3.477)">
          <ellipse id="Elipse_5022" data-name="Elipse 5022" cx="0.84" cy="1.45" rx="0.84" ry="1.45" transform="translate(0.021 1.516) rotate(-30.162)" fill="#808083"/>
          <path id="Trazado_149735" data-name="Trazado 149735" d="M374.072,163.392a.619.619,0,0,0-.481-.087.608.608,0,0,0-.161.452,1.75,1.75,0,0,0,.793,1.375.375.375,0,0,0,.643-.365A1.75,1.75,0,0,0,374.072,163.392Z" transform="translate(-372.594 -161.959)" fill="#5e5e5e"/>
          <path id="Trazado_149736" data-name="Trazado 149736" d="M374.265,165.126a1.75,1.75,0,0,1-.793-1.375.609.609,0,0,1,.159-.451.507.507,0,0,0-.316.542,1.754,1.754,0,0,0,.793,1.375.512.512,0,0,0,.635,0A.621.621,0,0,1,374.265,165.126Z" transform="translate(-372.635 -161.954)" fill="#757575"/>
          <g id="Grupo_93681" data-name="Grupo 93681" transform="translate(0 0.449)">
            <path id="Trazado_149737" data-name="Trazado 149737" d="M374.3,162.845a3.25,3.25,0,0,1,1.475,2.554c0,.939-.668,1.317-1.485.846a3.251,3.251,0,0,1-1.474-2.554C372.819,162.752,373.484,162.374,374.3,162.845Zm-.008,2.842c.549.317,1,.063,1-.568a2.182,2.182,0,0,0-.99-1.716c-.549-.316-.994-.061-1,.569a2.181,2.181,0,0,0,.99,1.715Z" transform="translate(-372.816 -162.642)" fill="#262626"/>
          </g>
          <path id="Trazado_149738" data-name="Trazado 149738" d="M376.18,163.959a3.59,3.59,0,0,0-.572-.9,2.654,2.654,0,0,0-.647-.545,1.041,1.041,0,0,0-1.052-.1l-.776.448a1.045,1.045,0,0,1,1.052.1,2.594,2.594,0,0,1,.647.544,3.62,3.62,0,0,1,.572.9,2.809,2.809,0,0,1,.256,1.11,1.034,1.034,0,0,1-.432.948l.776-.448a1.038,1.038,0,0,0,.432-.95A2.808,2.808,0,0,0,376.18,163.959Z" transform="translate(-372.701 -162.312)" fill="#333"/>
        </g>
        <g id="Grupo_93683" data-name="Grupo 93683" transform="translate(1.083 5.276)" style="isolation: isolate">
          <path id="Trazado_149739" data-name="Trazado 149739" d="M374.35,164.034a.833.833,0,0,0-.139-.219.642.642,0,0,0-.157-.132.259.259,0,0,0-.256-.026l-.11.065a.255.255,0,0,1,.256.026.614.614,0,0,1,.157.132.87.87,0,0,1,.139.219.675.675,0,0,1,.063.268.254.254,0,0,1-.1.232l.11-.065a.253.253,0,0,0,.1-.23A.676.676,0,0,0,374.35,164.034Z" transform="translate(-373.583 -163.633)" fill="#757575"/>
          <path id="Trazado_149740" data-name="Trazado 149740" d="M373.972,163.73c-.2-.114-.361-.023-.361.206a.786.786,0,0,0,.358.62c.2.114.36.023.361-.206A.793.793,0,0,0,373.972,163.73Z" transform="translate(-373.611 -163.616)" fill="#808083"/>
        </g>
      </g>
      <g id="Grupo_93709" data-name="Grupo 93709" transform="translate(88.055 99.002)">
        <g id="Grupo_93692" data-name="Grupo 93692">
          <g id="Grupo_93686" data-name="Grupo 93686" transform="translate(1.971 4.626)">
            <path id="Trazado_149741" data-name="Trazado 149741" d="M332.127,140.2c-.59-.341-1.069-.068-1.071.61a2.343,2.343,0,0,0,1.064,1.843c.59.341,1.069.067,1.071-.61A2.341,2.341,0,0,0,332.127,140.2Z" transform="translate(-330.592 -138.985)" fill="#808083"/>
            <path id="Trazado_149742" data-name="Trazado 149742" d="M332.018,140.388a.388.388,0,0,0-.666.379,1.815,1.815,0,0,0,.824,1.426.388.388,0,0,0,.666-.377A1.819,1.819,0,0,0,332.018,140.388Z" transform="translate(-330.484 -138.902)" fill="#5e5e5e"/>
            <path id="Trazado_149743" data-name="Trazado 149743" d="M332.219,142.188a1.815,1.815,0,0,1-.824-1.426.637.637,0,0,1,.166-.467.527.527,0,0,0-.328.561,1.813,1.813,0,0,0,.823,1.426.53.53,0,0,0,.659,0A.637.637,0,0,1,332.219,142.188Z" transform="translate(-330.527 -138.896)" fill="#757575"/>
            <g id="Grupo_93685" data-name="Grupo 93685" transform="translate(0 0.466)">
              <path id="Trazado_149744" data-name="Trazado 149744" d="M332.256,139.82a3.376,3.376,0,0,1,1.53,2.651c0,.974-.692,1.368-1.541.877a3.372,3.372,0,0,1-1.53-2.65C330.718,139.725,331.407,139.331,332.256,139.82Zm-.008,2.949c.569.33,1.033.065,1.034-.589a2.267,2.267,0,0,0-1.029-1.782c-.569-.328-1.033-.064-1.034.59a2.262,2.262,0,0,0,1.029,1.781Z" transform="translate(-330.715 -139.61)" fill="#262626"/>
            </g>
            <path id="Trazado_149745" data-name="Trazado 149745" d="M334.207,140.978a3.648,3.648,0,0,0-.6-.934,2.678,2.678,0,0,0-.67-.565,1.083,1.083,0,0,0-1.093-.106l-.805.466a1.086,1.086,0,0,1,1.093.106,2.757,2.757,0,0,1,.67.565,3.729,3.729,0,0,1,.594.935,2.879,2.879,0,0,1,.266,1.151,1.077,1.077,0,0,1-.448.985l.806-.466a1.077,1.077,0,0,0,.447-.985A2.889,2.889,0,0,0,334.207,140.978Z" transform="translate(-330.596 -139.268)" fill="#333"/>
          </g>
          <g id="Grupo_93687" data-name="Grupo 93687" transform="translate(3.095 6.493)" style="isolation: isolate">
            <path id="Trazado_149746" data-name="Trazado 149746" d="M332.308,141.054a.92.92,0,0,0-.144-.228.636.636,0,0,0-.164-.136.26.26,0,0,0-.266-.026l-.114.067a.263.263,0,0,1,.266.026.7.7,0,0,1,.163.138.935.935,0,0,1,.144.228.7.7,0,0,1,.064.279.263.263,0,0,1-.109.24l.114-.068a.262.262,0,0,0,.109-.24A.71.71,0,0,0,332.308,141.054Z" transform="translate(-331.511 -140.638)" fill="#757575"/>
            <path id="Trazado_149747" data-name="Trazado 149747" d="M331.915,140.739c-.206-.118-.373-.023-.375.214a.826.826,0,0,0,.372.644c.206.119.375.023.375-.214A.822.822,0,0,0,331.915,140.739Z" transform="translate(-331.54 -140.62)" fill="#808083"/>
          </g>
          <g id="Grupo_93688" data-name="Grupo 93688" transform="translate(1.904)" style="isolation: isolate">
            <path id="Trazado_149748" data-name="Trazado 149748" d="M332.8,137.236l-.922,6.025a.528.528,0,0,1-.229.451l.849-.493a.525.525,0,0,0,.229-.451l.922-6.027Z" transform="translate(-330.31 -135.557)" fill="#808083"/>
            <path id="Trazado_149749" data-name="Trazado 149749" d="M331.837,135.872l-.849.493,2.052,1.184.849-.493Z" transform="translate(-330.549 -135.872)" fill="#a9aeae"/>
            <path id="Trazado_149750" data-name="Trazado 149750" d="M331.1,136.234l-.439,7.16.774.445c.42.242.766.069.794-.4l.922-6.025Z" transform="translate(-330.666 -135.741)" fill="#5e5e5e"/>
          </g>
          <g id="Grupo_93690" data-name="Grupo 93690" transform="translate(0 5.764)">
            <path id="Trazado_149751" data-name="Trazado 149751" d="M330.68,141.03c-.59-.341-1.069-.067-1.071.61a2.341,2.341,0,0,0,1.064,1.843c.59.341,1.069.068,1.071-.61A2.343,2.343,0,0,0,330.68,141.03Z" transform="translate(-329.145 -139.82)" fill="#808083"/>
            <path id="Trazado_149752" data-name="Trazado 149752" d="M330.573,141.224a.389.389,0,0,0-.668.379,1.817,1.817,0,0,0,.824,1.426.388.388,0,0,0,.666-.379A1.813,1.813,0,0,0,330.573,141.224Z" transform="translate(-329.037 -139.737)" fill="#5e5e5e"/>
            <path id="Trazado_149753" data-name="Trazado 149753" d="M330.772,143.024a1.817,1.817,0,0,1-.824-1.426.638.638,0,0,1,.166-.469.528.528,0,0,0-.328.563,1.819,1.819,0,0,0,.824,1.426.53.53,0,0,0,.658,0A.636.636,0,0,1,330.772,143.024Z" transform="translate(-329.08 -139.731)" fill="#757575"/>
            <g id="Grupo_93689" data-name="Grupo 93689" transform="translate(0 0.466)">
              <path id="Trazado_149754" data-name="Trazado 149754" d="M330.809,140.656a3.372,3.372,0,0,1,1.53,2.65c0,.975-.692,1.368-1.539.879a3.374,3.374,0,0,1-1.531-2.651C329.271,140.559,329.96,140.166,330.809,140.656Zm-.008,2.949c.569.328,1.033.064,1.034-.59a2.261,2.261,0,0,0-1.027-1.781c-.569-.33-1.034-.065-1.035.59a2.27,2.27,0,0,0,1.029,1.781Z" transform="translate(-329.268 -140.445)" fill="#262626"/>
            </g>
            <path id="Trazado_149755" data-name="Trazado 149755" d="M332.76,141.813a3.73,3.73,0,0,0-.594-.935,2.732,2.732,0,0,0-.672-.564,1.083,1.083,0,0,0-1.093-.108l-.805.466a1.083,1.083,0,0,1,1.093.108,2.7,2.7,0,0,1,.67.564,3.691,3.691,0,0,1,.594.935,2.878,2.878,0,0,1,.266,1.151,1.071,1.071,0,0,1-.448.985l.806-.466a1.077,1.077,0,0,0,.448-.985A2.926,2.926,0,0,0,332.76,141.813Z" transform="translate(-329.149 -140.103)" fill="#333"/>
          </g>
          <g id="Grupo_93691" data-name="Grupo 93691" transform="translate(1.124 7.631)" style="isolation: isolate">
            <path id="Trazado_149756" data-name="Trazado 149756" d="M330.861,141.888a.922.922,0,0,0-.144-.228.664.664,0,0,0-.164-.136.261.261,0,0,0-.264-.026l-.116.067a.263.263,0,0,1,.266.026.673.673,0,0,1,.163.138.92.92,0,0,1,.144.227.7.7,0,0,1,.064.279.262.262,0,0,1-.109.24l.114-.068a.256.256,0,0,0,.109-.238A.687.687,0,0,0,330.861,141.888Z" transform="translate(-330.064 -141.473)" fill="#757575"/>
            <path id="Trazado_149757" data-name="Trazado 149757" d="M330.468,141.574c-.206-.118-.373-.023-.375.214a.822.822,0,0,0,.372.644c.207.119.375.023.375-.214A.822.822,0,0,0,330.468,141.574Z" transform="translate(-330.093 -141.456)" fill="#808083"/>
          </g>
        </g>
        <g id="Grupo_93700" data-name="Grupo 93700" transform="translate(3.46 1.998)">
          <g id="Grupo_93694" data-name="Grupo 93694" transform="translate(1.971 4.626)">
            <path id="Trazado_149758" data-name="Trazado 149758" d="M334.667,141.661c-.59-.341-1.069-.067-1.071.61a2.339,2.339,0,0,0,1.064,1.843c.59.341,1.069.068,1.071-.61A2.343,2.343,0,0,0,334.667,141.661Z" transform="translate(-333.131 -140.451)" fill="#808083"/>
            <path id="Trazado_149759" data-name="Trazado 149759" d="M334.558,141.855a.388.388,0,0,0-.666.379,1.814,1.814,0,0,0,.824,1.426.388.388,0,0,0,.666-.379A1.814,1.814,0,0,0,334.558,141.855Z" transform="translate(-333.024 -140.368)" fill="#5e5e5e"/>
            <path id="Trazado_149760" data-name="Trazado 149760" d="M334.759,143.655a1.815,1.815,0,0,1-.824-1.426.635.635,0,0,1,.166-.467.526.526,0,0,0-.328.561,1.817,1.817,0,0,0,.824,1.426.53.53,0,0,0,.658,0A.636.636,0,0,1,334.759,143.655Z" transform="translate(-333.067 -140.362)" fill="#757575"/>
            <g id="Grupo_93693" data-name="Grupo 93693" transform="translate(0 0.466)">
              <path id="Trazado_149761" data-name="Trazado 149761" d="M334.8,141.287a3.372,3.372,0,0,1,1.53,2.65c0,.975-.692,1.368-1.541.879a3.374,3.374,0,0,1-1.53-2.651C333.258,141.19,333.947,140.8,334.8,141.287Zm-.008,2.949c.569.328,1.033.064,1.034-.59a2.263,2.263,0,0,0-1.027-1.781c-.571-.328-1.034-.065-1.035.59a2.27,2.27,0,0,0,1.029,1.781Z" transform="translate(-333.255 -141.077)" fill="#262626"/>
            </g>
            <path id="Trazado_149762" data-name="Trazado 149762" d="M336.747,142.444a3.729,3.729,0,0,0-.594-.935,2.732,2.732,0,0,0-.672-.564,1.083,1.083,0,0,0-1.093-.108l-.805.466a1.083,1.083,0,0,1,1.093.108,2.749,2.749,0,0,1,.67.564,3.69,3.69,0,0,1,.594.935,2.879,2.879,0,0,1,.266,1.151,1.071,1.071,0,0,1-.448.985l.807-.466a1.074,1.074,0,0,0,.448-.985A2.926,2.926,0,0,0,336.747,142.444Z" transform="translate(-333.136 -140.734)" fill="#333"/>
          </g>
          <g id="Grupo_93695" data-name="Grupo 93695" transform="translate(3.095 6.493)" style="isolation: isolate">
            <path id="Trazado_149763" data-name="Trazado 149763" d="M334.848,142.519a.913.913,0,0,0-.144-.226.671.671,0,0,0-.163-.138.263.263,0,0,0-.266-.026l-.114.068a.263.263,0,0,1,.266.026.636.636,0,0,1,.164.136.963.963,0,0,1,.144.228.709.709,0,0,1,.064.279.26.26,0,0,1-.109.24l.114-.067a.26.26,0,0,0,.109-.24A.692.692,0,0,0,334.848,142.519Z" transform="translate(-334.051 -142.104)" fill="#757575"/>
            <path id="Trazado_149764" data-name="Trazado 149764" d="M334.455,142.206c-.206-.12-.373-.023-.375.212a.822.822,0,0,0,.372.644c.206.119.375.023.375-.214A.818.818,0,0,0,334.455,142.206Z" transform="translate(-334.08 -142.086)" fill="#808083"/>
          </g>
          <g id="Grupo_93696" data-name="Grupo 93696" transform="translate(1.906)" style="isolation: isolate">
            <path id="Trazado_149765" data-name="Trazado 149765" d="M335.34,138.7l-.922,6.027a.53.53,0,0,1-.229.451l.849-.495a.522.522,0,0,0,.229-.45l.922-6.027Z" transform="translate(-332.851 -137.023)" fill="#808083"/>
            <path id="Trazado_149766" data-name="Trazado 149766" d="M334.377,137.338l-.849.493,2.052,1.185.849-.493Z" transform="translate(-333.091 -137.338)" fill="#a9aeae"/>
            <path id="Trazado_149767" data-name="Trazado 149767" d="M333.644,137.7l-.437,7.16.772.447c.42.242.767.068.794-.4l.922-6.027Z" transform="translate(-333.207 -137.207)" fill="#5e5e5e"/>
          </g>
          <g id="Grupo_93698" data-name="Grupo 93698" transform="translate(0 5.764)">
            <path id="Trazado_149768" data-name="Trazado 149768" d="M333.22,142.5c-.59-.341-1.069-.068-1.071.61a2.347,2.347,0,0,0,1.064,1.843c.59.341,1.069.067,1.071-.61A2.341,2.341,0,0,0,333.22,142.5Z" transform="translate(-331.685 -141.286)" fill="#808083"/>
            <path id="Trazado_149769" data-name="Trazado 149769" d="M333.112,142.69a.643.643,0,0,0-.5-.091.631.631,0,0,0-.168.47,1.81,1.81,0,0,0,.823,1.426.388.388,0,0,0,.666-.379A1.817,1.817,0,0,0,333.112,142.69Z" transform="translate(-331.577 -141.203)" fill="#5e5e5e"/>
            <path id="Trazado_149770" data-name="Trazado 149770" d="M333.312,144.49a1.809,1.809,0,0,1-.823-1.426.629.629,0,0,1,.165-.467.527.527,0,0,0-.328.561,1.815,1.815,0,0,0,.824,1.426.53.53,0,0,0,.658,0A.638.638,0,0,1,333.312,144.49Z" transform="translate(-331.62 -141.197)" fill="#757575"/>
            <g id="Grupo_93697" data-name="Grupo 93697" transform="translate(0 0.466)">
              <path id="Trazado_149771" data-name="Trazado 149771" d="M333.349,142.122a3.377,3.377,0,0,1,1.53,2.651c0,.974-.692,1.368-1.539.877a3.369,3.369,0,0,1-1.531-2.65C331.811,142.025,332.5,141.633,333.349,142.122Zm-.008,2.949c.569.328,1.033.065,1.034-.59a2.265,2.265,0,0,0-1.027-1.781c-.569-.328-1.033-.064-1.035.59a2.266,2.266,0,0,0,1.029,1.781Z" transform="translate(-331.808 -141.912)" fill="#262626"/>
            </g>
            <path id="Trazado_149772" data-name="Trazado 149772" d="M335.3,143.279a3.7,3.7,0,0,0-.594-.933,2.707,2.707,0,0,0-.672-.565,1.077,1.077,0,0,0-1.091-.106l-.806.466a1.086,1.086,0,0,1,1.093.106,2.679,2.679,0,0,1,.67.565,3.643,3.643,0,0,1,.594.935,2.869,2.869,0,0,1,.266,1.151,1.074,1.074,0,0,1-.448.985l.806-.467a1.073,1.073,0,0,0,.448-.984A2.9,2.9,0,0,0,335.3,143.279Z" transform="translate(-331.689 -141.569)" fill="#333"/>
          </g>
          <g id="Grupo_93699" data-name="Grupo 93699" transform="translate(1.124 7.63)" style="isolation: isolate">
            <path id="Trazado_149773" data-name="Trazado 149773" d="M333.4,143.356a.919.919,0,0,0-.144-.227.669.669,0,0,0-.163-.138.261.261,0,0,0-.264-.026l-.116.068a.263.263,0,0,1,.266.026.671.671,0,0,1,.163.138.89.89,0,0,1,.144.226.716.716,0,0,1,.064.281.26.26,0,0,1-.109.24l.116-.068a.265.265,0,0,0,.109-.24A.707.707,0,0,0,333.4,143.356Z" transform="translate(-332.604 -142.939)" fill="#757575"/>
            <path id="Trazado_149774" data-name="Trazado 149774" d="M333.008,143.041c-.206-.119-.373-.023-.375.214a.826.826,0,0,0,.372.644c.207.119.375.023.375-.214A.818.818,0,0,0,333.008,143.041Z" transform="translate(-332.633 -142.921)" fill="#808083"/>
          </g>
        </g>
        <g id="Grupo_93708" data-name="Grupo 93708" transform="translate(6.92 3.996)">
          <g id="Grupo_93702" data-name="Grupo 93702" transform="translate(1.971 4.626)">
            <path id="Trazado_149775" data-name="Trazado 149775" d="M337.207,143.128c-.59-.341-1.069-.067-1.071.61a2.343,2.343,0,0,0,1.064,1.843c.59.341,1.069.067,1.071-.61A2.343,2.343,0,0,0,337.207,143.128Z" transform="translate(-335.671 -141.918)" fill="#808083"/>
            <path id="Trazado_149776" data-name="Trazado 149776" d="M337.1,143.322a.389.389,0,0,0-.668.377,1.819,1.819,0,0,0,.824,1.428.636.636,0,0,0,.5.09.626.626,0,0,0,.168-.469A1.813,1.813,0,0,0,337.1,143.322Z" transform="translate(-335.564 -141.835)" fill="#5e5e5e"/>
            <path id="Trazado_149777" data-name="Trazado 149777" d="M337.3,145.122a1.819,1.819,0,0,1-.824-1.428.637.637,0,0,1,.166-.467.527.527,0,0,0-.328.561,1.815,1.815,0,0,0,.824,1.426.528.528,0,0,0,.658,0A.642.642,0,0,1,337.3,145.122Z" transform="translate(-335.607 -141.829)" fill="#757575"/>
            <g id="Grupo_93701" data-name="Grupo 93701" transform="translate(0 0.466)">
              <path id="Trazado_149778" data-name="Trazado 149778" d="M337.336,142.754a3.372,3.372,0,0,1,1.53,2.65c0,.974-.692,1.368-1.539.877a3.37,3.37,0,0,1-1.531-2.65C335.8,142.657,336.487,142.264,337.336,142.754Zm-.008,2.948c.569.33,1.033.065,1.034-.589a2.261,2.261,0,0,0-1.027-1.781c-.569-.33-1.034-.065-1.035.589a2.266,2.266,0,0,0,1.029,1.781Z" transform="translate(-335.795 -142.543)" fill="#262626"/>
            </g>
            <path id="Trazado_149779" data-name="Trazado 149779" d="M339.287,143.911a3.68,3.68,0,0,0-.594-.935,2.738,2.738,0,0,0-.672-.565,1.083,1.083,0,0,0-1.091-.106l-.806.466a1.083,1.083,0,0,1,1.093.108,2.7,2.7,0,0,1,.67.564,3.691,3.691,0,0,1,.594.935,2.878,2.878,0,0,1,.266,1.151,1.074,1.074,0,0,1-.448.985l.806-.466a1.077,1.077,0,0,0,.448-.985A2.915,2.915,0,0,0,339.287,143.911Z" transform="translate(-335.676 -142.201)" fill="#333"/>
          </g>
          <g id="Grupo_93703" data-name="Grupo 93703" transform="translate(3.095 6.493)" style="isolation: isolate">
            <path id="Trazado_149780" data-name="Trazado 149780" d="M337.388,143.986a.92.92,0,0,0-.144-.227.637.637,0,0,0-.163-.136.261.261,0,0,0-.264-.026l-.116.067a.263.263,0,0,1,.266.026.67.67,0,0,1,.163.138.894.894,0,0,1,.144.227.7.7,0,0,1,.064.279.263.263,0,0,1-.109.24l.114-.068a.257.257,0,0,0,.109-.24A.687.687,0,0,0,337.388,143.986Z" transform="translate(-336.591 -143.571)" fill="#757575"/>
            <path id="Trazado_149781" data-name="Trazado 149781" d="M336.995,143.672c-.206-.119-.373-.023-.375.214a.824.824,0,0,0,.372.644c.207.119.375.023.375-.214A.818.818,0,0,0,336.995,143.672Z" transform="translate(-336.62 -143.554)" fill="#808083"/>
          </g>
          <g id="Grupo_93704" data-name="Grupo 93704" transform="translate(1.906)" style="isolation: isolate">
            <path id="Trazado_149782" data-name="Trazado 149782" d="M337.88,140.169l-.922,6.025a.525.525,0,0,1-.229.451l.849-.493a.529.529,0,0,0,.23-.451l.922-6.027Z" transform="translate(-335.391 -138.49)" fill="#808083"/>
            <path id="Trazado_149783" data-name="Trazado 149783" d="M336.917,138.8l-.849.493,2.052,1.184.849-.493Z" transform="translate(-335.631 -138.805)" fill="#a9aeae"/>
            <path id="Trazado_149784" data-name="Trazado 149784" d="M336.184,139.167l-.437,7.16.772.447c.42.241.767.068.794-.4l.922-6.025Z" transform="translate(-335.747 -138.674)" fill="#5e5e5e"/>
          </g>
          <g id="Grupo_93706" data-name="Grupo 93706" transform="translate(0 5.764)">
            <path id="Trazado_149785" data-name="Trazado 149785" d="M335.76,143.963c-.59-.341-1.069-.067-1.071.61a2.345,2.345,0,0,0,1.064,1.843c.59.341,1.069.068,1.072-.61A2.348,2.348,0,0,0,335.76,143.963Z" transform="translate(-334.225 -142.753)" fill="#808083"/>
            <path id="Trazado_149786" data-name="Trazado 149786" d="M335.652,144.157a.637.637,0,0,0-.5-.091.629.629,0,0,0-.168.47,1.815,1.815,0,0,0,.823,1.426.388.388,0,0,0,.666-.379A1.813,1.813,0,0,0,335.652,144.157Z" transform="translate(-334.117 -142.67)" fill="#5e5e5e"/>
            <path id="Trazado_149787" data-name="Trazado 149787" d="M335.852,145.957a1.815,1.815,0,0,1-.823-1.426.628.628,0,0,1,.166-.469.527.527,0,0,0-.33.563,1.817,1.817,0,0,0,.824,1.426.532.532,0,0,0,.659,0A.639.639,0,0,1,335.852,145.957Z" transform="translate(-334.16 -142.664)" fill="#757575"/>
            <g id="Grupo_93705" data-name="Grupo 93705" transform="translate(0 0.466)">
              <path id="Trazado_149788" data-name="Trazado 149788" d="M335.889,143.589a3.372,3.372,0,0,1,1.53,2.65c0,.975-.692,1.368-1.539.879a3.374,3.374,0,0,1-1.531-2.651C334.351,143.492,335.041,143.1,335.889,143.589Zm-.008,2.949c.569.328,1.033.064,1.034-.59a2.261,2.261,0,0,0-1.027-1.781c-.569-.33-1.033-.065-1.035.59a2.27,2.27,0,0,0,1.029,1.781Z" transform="translate(-334.348 -143.378)" fill="#262626"/>
            </g>
            <path id="Trazado_149789" data-name="Trazado 149789" d="M337.84,144.746a3.727,3.727,0,0,0-.594-.935,2.752,2.752,0,0,0-.67-.564,1.083,1.083,0,0,0-1.093-.108l-.806.466a1.083,1.083,0,0,1,1.093.108,2.7,2.7,0,0,1,.67.564,3.653,3.653,0,0,1,.594.934,2.879,2.879,0,0,1,.266,1.151,1.073,1.073,0,0,1-.447.985l.805-.466a1.076,1.076,0,0,0,.448-.985A2.877,2.877,0,0,0,337.84,144.746Z" transform="translate(-334.229 -143.036)" fill="#333"/>
          </g>
          <g id="Grupo_93707" data-name="Grupo 93707" transform="translate(1.125 7.631)" style="isolation: isolate">
            <path id="Trazado_149790" data-name="Trazado 149790" d="M335.941,144.821a.882.882,0,0,0-.144-.227.683.683,0,0,0-.162-.136.263.263,0,0,0-.266-.026l-.116.068a.259.259,0,0,1,.266.025.671.671,0,0,1,.163.138.92.92,0,0,1,.144.228.684.684,0,0,1,.064.279.259.259,0,0,1-.109.24l.116-.068a.262.262,0,0,0,.109-.238A.713.713,0,0,0,335.941,144.821Z" transform="translate(-335.145 -144.406)" fill="#757575"/>
            <path id="Trazado_149791" data-name="Trazado 149791" d="M335.547,144.507c-.206-.119-.373-.023-.373.214a.814.814,0,0,0,.372.644c.206.119.373.023.373-.214A.819.819,0,0,0,335.547,144.507Z" transform="translate(-335.174 -144.389)" fill="#808083"/>
          </g>
        </g>
      </g>
      <path id="Trazado_149792" data-name="Trazado 149792" d="M357.758,152.783l-8.662-.248-27.575-15.92-5.676-9.023,34.723,7.167Z" transform="translate(-246.075 -39.869)" fill="#a22b1d"/>
      <path id="Trazado_149793" data-name="Trazado 149793" d="M298.244,101.116a180.161,180.161,0,0,1,26.687,11.33c1.612.826,42.1,22.411,65.417,34.978,8.784,4.735,16.954,9.243,17.861,9.826a33.862,33.862,0,0,1,5.256,4.175,22.771,22.771,0,0,1,5.689,9.431,15.546,15.546,0,0,1,5.316,9.956,4.623,4.623,0,0,1-2.85,4.651c-5.906,2.477-15.888.116-24.334-4.76-28.4-16.4-73.49-42.916-84.159-49.076-17.185-9.921-24.442-25.938-23.81-29.414C289.882,99.088,294.376,99.924,298.244,101.116Z" transform="translate(-255.701 -49.849)" fill="url(#linear-gradient)"/>
      <path id="Trazado_149794" data-name="Trazado 149794" d="M424.063,178.735c0,2.607-3.731,4.441-11.308,2.956-8.932-1.751-53.148-26.509-84.284-45.181-4.821-3.072-9.4-6.089-13.611-11.093a9.523,9.523,0,0,1-2.474-6.336c.177-5.1,4.547-9.567,10.054-7.883a173.39,173.39,0,0,0-24.194-10.081c-3.868-1.192-8.362-2.028-8.928,1.1-.451,2.482,2.59,9.065,6.9,14.681A50.806,50.806,0,0,0,310.26,129.92c6.4,4.2,15.808,9.251,31.527,18.452,4.952,2.9,11.222,8.1,24.156,14.3,2.7,1.575,24.679,14.36,31.188,18.118,8.441,4.873,18.662,7.3,24.569,4.829a4.721,4.721,0,0,0,2.756-4.756A12.9,12.9,0,0,0,424.063,178.735Z" transform="translate(-255.702 -49.849)" fill="url(#linear-gradient-2)"/>
      <path id="Trazado_149795" data-name="Trazado 149795" d="M384.109,146.357c-2.52-1.654-17.925-10.307-28.868-16.244-1.274.55-2.512,1.208-3.772,1.79,10.708,5.968,27.006,15.06,29.364,16.574,6.414,4.117,8.132,6.207,10.552,6.108C393.247,154.51,391.314,151.085,384.109,146.357Z" transform="translate(-233.17 -38.956)" fill="#f2f1e9" opacity="0.5" style="mix-blend-mode: screen;isolation: isolate"/>
      <path id="Trazado_149796" data-name="Trazado 149796" d="M350.2,134.566a38.287,38.287,0,0,0,3.114,2.577,28.244,28.244,0,0,0-8.691,2.109c16.6,9.641,33.084,19.116,35.238,18.364C386.79,155.2,367.416,143.842,350.2,134.566Z" transform="translate(-235.652 -37.342)" fill="#f2f1e9" opacity="0.2" style="mix-blend-mode: screen;isolation: isolate"/>
      <path id="Trazado_149797" data-name="Trazado 149797" d="M400.383,150.434a5.261,5.261,0,0,1,1.558.244l-.74-.4a5.63,5.63,0,0,0-.819-.1c-4.233,0-9.524,4.064-12.582,9.411a20.9,20.9,0,0,0-1.052,2.1,14.689,14.689,0,0,0-1.319,5.735c-17.538-10.127-39.521-23.008-54.257-31.651-5.772-3.387-10.788-6.329-14.752-8.645a13.373,13.373,0,0,1,1.18-4.876c2.451-5.662,7.888-10.268,12.12-10.268.084,0,.155.026.238.029l-.482-.256c-4.288.166-9.672,4.75-12.115,10.394a13.815,13.815,0,0,0-1.206,4.821c-2.385-1.394-4.374-2.552-5.893-3.429a83.656,83.656,0,0,1-17.106-12.853c.26.38.556.772.836,1.159a84.8,84.8,0,0,0,16.14,11.917c1.546.894,3.587,2.082,6.032,3.511a6.014,6.014,0,0,0,1.067,3.708c.244.142.508.3.76.444a5.162,5.162,0,0,1-1.564-4c3.943,2.305,8.905,5.216,14.612,8.566,14.775,8.67,36.831,21.591,54.4,31.733a6.374,6.374,0,0,0,1.23,3.8l.7.409c-2.1-1.839-2.293-5.739-.384-10.142C389.7,155.525,395.707,150.434,400.383,150.434Z" transform="translate(-254.295 -45.995)" fill="#c1c0b6" opacity="0.3" style="mix-blend-mode: multiply;isolation: isolate"/>
      <g id="Grupo_93712" data-name="Grupo 93712" transform="translate(35.042)" style="isolation: isolate">
        <path id="Trazado_149798" data-name="Trazado 149798" d="M322.113,65.683,298.024,87.1l0,1L322.11,66.68a.54.54,0,0,0,.191-.386l0-1A.535.535,0,0,1,322.113,65.683Z" transform="translate(-287.575 -62.437)" fill="#dad9cf"/>
        <g id="Grupo_93710" data-name="Grupo 93710" transform="translate(0 18.629)">
          <path id="Trazado_149799" data-name="Trazado 149799" d="M300.8,82.9l0,1-10.446-6.031,0-1Z" transform="translate(-290.353 -76.873)" fill="#707576"/>
        </g>
        <g id="Grupo_93711" data-name="Grupo 93711" transform="translate(0.003)">
          <path id="Trazado_149800" data-name="Trazado 149800" d="M324.74,65.571c.392.226.45.6.15.873L300.8,87.858l-10.446-6.031L319.22,63.442a1.85,1.85,0,0,1,1.753-.045Z" transform="translate(-290.355 -63.198)" fill="#f4f3eb"/>
        </g>
      </g>
      <g id="Grupo_93716" data-name="Grupo 93716" transform="translate(32.718 20.021)" style="isolation: isolate">
        <g id="Grupo_93713" data-name="Grupo 93713" transform="translate(17.195 29.925)">
          <path id="Trazado_149801" data-name="Trazado 149801" d="M301.269,100.94l1.856-1.079,6.291,10.289-1.856,1.079Z" transform="translate(-301.269 -99.861)" fill="#f4f3eb"/>
        </g>
        <g id="Grupo_93714" data-name="Grupo 93714" transform="translate(10.166 5.869)">
          <path id="Trazado_149802" data-name="Trazado 149802" d="M296.109,83.281l1.856-1.079,7.029,24.056-1.856,1.079Z" transform="translate(-296.109 -82.203)" fill="#dad9cf"/>
        </g>
        <g id="Grupo_93715" data-name="Grupo 93715">
          <path id="Trazado_149803" data-name="Trazado 149803" d="M288.647,78.973l1.856-1.079,10.166,5.869-1.856,1.079Z" transform="translate(-288.647 -77.894)" fill="#b1babc"/>
        </g>
        <path id="Trazado_149804" data-name="Trazado 149804" d="M305.842,108.611l-7.029-24.057-10.165-5.869,1.876,29.7c6.347,2.09,13.745,5.92,21.61,10.517Z" transform="translate(-288.647 -77.607)" fill="#c1c0b6"/>
        <path id="Trazado_149805" data-name="Trazado 149805" d="M300.974,91.952l-2.162-7.4-10.165-5.869L289.868,98A75.057,75.057,0,0,1,300.974,91.952Z" transform="translate(-288.647 -77.607)" fill="#c1c0b6" opacity="0.4" style="mix-blend-mode: multiply;isolation: isolate"/>
      </g>
      <g id="Grupo_93717" data-name="Grupo 93717" transform="translate(29.624 16.92)" style="isolation: isolate">
        <path id="Trazado_149806" data-name="Trazado 149806" d="M287.518,75.625a.623.623,0,0,0-.414.1,1.633,1.633,0,0,0-.727,1.291.6.6,0,0,0,.121.387l2.6,3.068a1.413,1.413,0,0,1-.285-.9,3.815,3.815,0,0,1,1.7-3.015,1.447,1.447,0,0,1,.967-.236Z" transform="translate(-286.376 -75.619)" fill="#c1c0b6"/>
        <path id="Trazado_149807" data-name="Trazado 149807" d="M291.11,76.236a1.233,1.233,0,0,0-1.248.135,3.815,3.815,0,0,0-1.7,3.015,1.208,1.208,0,0,0,.512,1.1l10.885,6.25a1.208,1.208,0,0,1-.512-1.1,3.815,3.815,0,0,1,1.7-3.015,1.233,1.233,0,0,1,1.248-.135Z" transform="translate(-285.729 -75.437)" fill="url(#linear-gradient-3)"/>
        <path id="Trazado_149808" data-name="Trazado 149808" d="M299.273,80.956a1.126,1.126,0,0,0-1.421,0,3.815,3.815,0,0,0-1.7,3.015c.009.65.29,1.065.715,1.178l2.588.691c-.3-.08-.5-.379-.512-.842a2.729,2.729,0,0,1,1.217-2.156.8.8,0,0,1,1.016,0Z" transform="translate(-282.834 -73.775)" fill="url(#linear-gradient-4)"/>
        <path id="Trazado_149809" data-name="Trazado 149809" d="M299.418,82.324A2.729,2.729,0,0,0,298.2,84.48c.012.785.576,1.091,1.26.685a2.725,2.725,0,0,0,1.215-2.155C300.664,82.226,300.1,81.918,299.418,82.324Z" transform="translate(-282.092 -73.254)" fill="#dad9cf"/>
        <path id="Trazado_149810" data-name="Trazado 149810" d="M299.339,82.579a2.027,2.027,0,0,0-.9,1.6c.008.583.428.812.937.511a2.035,2.035,0,0,0,.9-1.6C300.266,82.5,299.847,82.276,299.339,82.579Z" transform="translate(-282.008 -73.146)" fill="#3f4146" style="mix-blend-mode: multiply;isolation: isolate"/>
      </g>
      <g id="Grupo_93719" data-name="Grupo 93719" transform="translate(0 20.233)" style="isolation: isolate">
        <path id="Trazado_149811" data-name="Trazado 149811" d="M270.241,96.5a1.874,1.874,0,0,1-1.5-.09l-3.756-2.167a.6.6,0,0,1-.356-.5l0,1a.6.6,0,0,0,.356.5l3.756,2.167a1.875,1.875,0,0,0,1.5.091l36.9-14.03,0-1Z" transform="translate(-264.63 -76.448)" fill="#dad9cf"/>
        <g id="Grupo_93718" data-name="Grupo 93718" transform="translate(0.002)">
          <path id="Trazado_149812" data-name="Trazado 149812" d="M307.141,84.075,270.241,98.1a1.875,1.875,0,0,1-1.5-.09l-3.756-2.167c-.493-.285-.473-.751.05-1.016L296.706,78.05Z" transform="translate(-264.631 -78.05)" fill="#f4f3eb"/>
        </g>
      </g>
      <path id="Trazado_149813" data-name="Trazado 149813" d="M387.957,152.944a26.006,26.006,0,0,0-1.395-3.385c.322,3.156-5.483,5.129-10.718,4.094l-.435,3.246C384.6,157.978,387.739,154.755,387.957,152.944Z" transform="translate(-224.497 -31.911)" fill="#2d2a2a"/>
    </g>
    <g id="Grupo_93725" data-name="Grupo 93725" transform="translate(75.329 72.897)">
      <path id="Trazado_149814" data-name="Trazado 149814" d="M311.159,127.274l14.158,8.174c-.432-2.2.008-5.738,2.565-9.9l-14.512-8.379C311.617,120.018,310.257,123.906,311.159,127.274Z" transform="translate(-307.586 -116.544)" fill="url(#linear-gradient-5)"/>
      <g id="Grupo_93724" data-name="Grupo 93724" style="isolation: isolate">
        <g id="Grupo_93721" data-name="Grupo 93721" transform="translate(5.84 0.977)" style="isolation: isolate">
          <g id="Grupo_93720" data-name="Grupo 93720" style="isolation: isolate">
            <path id="Trazado_149815" data-name="Trazado 149815" d="M326.988,125.878l-13.346-7.755a4.568,4.568,0,0,0-.895-.7l13.346,7.757a4.612,4.612,0,0,1,.895.695Z" transform="translate(-312.747 -117.426)" fill="#a9a8a1"/>
          </g>
        </g>
        <g id="Grupo_93722" data-name="Grupo 93722" transform="translate(0 1.125)">
          <path id="Trazado_149816" data-name="Trazado 149816" d="M321.807,125.683l-13.346-7.756v-.392l13.346,7.756Z" transform="translate(-308.46 -117.535)" fill="#c1c0b6"/>
        </g>
        <path id="Trazado_149817" data-name="Trazado 149817" d="M314.519,117.273a3.882,3.882,0,0,0-.471-.233,6.528,6.528,0,0,0-5.558.772c-.04.022,13.307,7.777,13.307,7.777,2.069-1.148,4.042-1.424,5.6-.794a3.792,3.792,0,0,1,.471.234Z" transform="translate(-308.45 -116.709)" fill="#eeede5"/>
        <g id="Grupo_93723" data-name="Grupo 93723" transform="translate(13.346 7.756)">
          <path id="Trazado_149818" data-name="Trazado 149818" d="M318.3,123.505a6.533,6.533,0,0,1,5.558-.772,4.424,4.424,0,0,1,1.41.96l-.272.381a4.124,4.124,0,0,0-1.361-.921,6.2,6.2,0,0,0-5.333.744c-.039.022-.041-.371-.041-.371Z" transform="translate(-318.257 -122.402)" fill="#d0cfc8"/>
        </g>
      </g>
    </g>
    <g id="Grupo_93762" data-name="Grupo 93762" transform="translate(0 15.085)">
      <g id="Grupo_93740" data-name="Grupo 93740" transform="translate(154.533 32.753)">
        <g id="Grupo_93732" data-name="Grupo 93732" transform="translate(16.763)">
          <g id="Grupo_93728" data-name="Grupo 93728" transform="translate(0 6.442)">
            <g id="Grupo_93727" data-name="Grupo 93727">
              <g id="Grupo_93726" data-name="Grupo 93726">
                <path id="Trazado_149819" data-name="Trazado 149819" d="M388.533,103.54c-5.188-2.068-10.526,2.757-9.5,6.328,1.084,1.177,12.33,7.968,14.828,8.476l5.318-8.554S399.718,108.747,388.533,103.54Z" transform="translate(-378.906 -103.043)" fill="url(#linear-gradient-6)"/>
              </g>
              <path id="Trazado_149820" data-name="Trazado 149820" d="M390.856,104.931c.075.089,1.349,2.78.764,2.693-3.387-.5-7.679,2.414-7.873,3.964,2.723,1.444,6.516,3.43,7.112,3.663l6.237-5.776a.476.476,0,0,0,.007-.688C395.886,107.56,393.644,106.5,390.856,104.931Z" transform="translate(-377.152 -102.359)" fill="url(#linear-gradient-7)" style="mix-blend-mode: screen;isolation: isolate"/>
            </g>
            <path id="Trazado_149821" data-name="Trazado 149821" d="M392.469,107.886a8.1,8.1,0,0,0-3.665,6.347c0,2.336,1.64,3.284,3.665,2.116A8.1,8.1,0,0,0,396.132,110C396.132,107.665,394.492,106.718,392.469,107.886Z" transform="translate(-375.32 -101.47)" fill="#dad9cf"/>
            <path id="Trazado_149822" data-name="Trazado 149822" d="M392.362,108.211a7.215,7.215,0,0,0-3.264,5.655c0,2.08,1.46,2.925,3.264,1.884a7.214,7.214,0,0,0,3.263-5.653C395.625,108.014,394.164,107.17,392.362,108.211Z" transform="translate(-375.214 -101.332)" fill="url(#linear-gradient-8)"/>
          </g>
          <g id="Grupo_93731" data-name="Grupo 93731" transform="translate(4.513)" style="isolation: isolate">
            <g id="Grupo_93729" data-name="Grupo 93729" transform="translate(7.346 6.992)">
              <path id="Trazado_149823" data-name="Trazado 149823" d="M387.611,103.894l.77-.447,2.61,4.268-.77.447Z" transform="translate(-387.611 -103.447)" fill="#f8f7ef"/>
            </g>
            <g id="Grupo_93730" data-name="Grupo 93730" transform="translate(5.81 2.184)">
              <path id="Trazado_149824" data-name="Trazado 149824" d="M386.484,99.917l1.535,5.256.77-.447-1.268-4.344C387.176,100.222,386.83,100.07,386.484,99.917Z" transform="translate(-386.484 -99.917)" fill="#dad9cf"/>
            </g>
            <path id="Trazado_149825" data-name="Trazado 149825" d="M388.029,100.5c-1.744-.77-3.511-1.478-5.283-2.184l-.527,7.2s6.088,2.93,9.956,4.5l-2.61-4.268Z" transform="translate(-382.219 -98.314)" fill="#c1c0b6"/>
          </g>
        </g>
        <g id="Grupo_93739" data-name="Grupo 93739" transform="translate(0 15.199)">
          <g id="Grupo_93735" data-name="Grupo 93735" transform="translate(0 6.441)">
            <g id="Grupo_93734" data-name="Grupo 93734">
              <g id="Grupo_93733" data-name="Grupo 93733">
                <path id="Trazado_149826" data-name="Trazado 149826" d="M376.228,114.7c-5.188-2.068-10.526,2.757-9.5,6.328,1.083,1.177,12.33,7.968,14.828,8.476l5.317-8.554S387.413,119.9,376.228,114.7Z" transform="translate(-366.601 -114.199)" fill="url(#linear-gradient-9)"/>
              </g>
              <path id="Trazado_149827" data-name="Trazado 149827" d="M378.552,116.087c.075.089,1.349,2.78.764,2.693-3.388-.5-7.68,2.414-7.874,3.964,2.723,1.444,6.517,3.43,7.114,3.663l6.235-5.776a.476.476,0,0,0,.008-.688C383.581,118.716,381.338,117.659,378.552,116.087Z" transform="translate(-364.847 -113.515)" fill="url(#linear-gradient-10)" style="mix-blend-mode: screen;isolation: isolate"/>
            </g>
            <path id="Trazado_149828" data-name="Trazado 149828" d="M380.162,119.042a8.1,8.1,0,0,0-3.663,6.347c0,2.336,1.64,3.284,3.663,2.116a8.1,8.1,0,0,0,3.665-6.347C383.827,118.821,382.187,117.874,380.162,119.042Z" transform="translate(-363.015 -112.626)" fill="#dad9cf"/>
            <path id="Trazado_149829" data-name="Trazado 149829" d="M380.056,119.367a7.218,7.218,0,0,0-3.264,5.655c0,2.08,1.462,2.925,3.264,1.884a7.216,7.216,0,0,0,3.264-5.653C383.32,119.17,381.858,118.326,380.056,119.367Z" transform="translate(-362.909 -112.488)" fill="url(#linear-gradient-11)"/>
          </g>
          <g id="Grupo_93738" data-name="Grupo 93738" transform="translate(4.513)" style="isolation: isolate">
            <g id="Grupo_93736" data-name="Grupo 93736" transform="translate(7.345 6.991)">
              <path id="Trazado_149830" data-name="Trazado 149830" d="M375.306,115.05l.77-.447,2.61,4.268-.77.447Z" transform="translate(-375.306 -114.603)" fill="#f8f7ef"/>
            </g>
            <g id="Grupo_93737" data-name="Grupo 93737" transform="translate(5.81 2.182)">
              <path id="Trazado_149831" data-name="Trazado 149831" d="M374.179,111.073l1.535,5.256.77-.447-1.27-4.344C374.871,111.378,374.525,111.226,374.179,111.073Z" transform="translate(-374.179 -111.073)" fill="#dad9cf"/>
            </g>
            <path id="Trazado_149832" data-name="Trazado 149832" d="M375.724,111.653c-1.744-.77-3.511-1.478-5.283-2.182l-.527,7.2s6.088,2.93,9.956,4.5l-2.61-4.268Z" transform="translate(-369.914 -109.471)" fill="#c1c0b6"/>
          </g>
        </g>
      </g>
      <g id="Grupo_93743" data-name="Grupo 93743" transform="translate(112.045)" style="isolation: isolate">
        <path id="Trazado_149833" data-name="Trazado 149833" d="M432,78.779l-76.7,69.776,0,1.289L432,80.066a.644.644,0,0,0,.248-.48l0-1.289A.647.647,0,0,1,432,78.779Z" transform="translate(-328.209 -72.813)" fill="#dad9cf"/>
        <g id="Grupo_93741" data-name="Grupo 93741" transform="translate(0 60.105)">
          <path id="Trazado_149834" data-name="Trazado 149834" d="M362.5,134.03l0,1.288L335.412,119.68l0-1.288Z" transform="translate(-335.412 -118.393)" fill="#707576"/>
        </g>
        <g id="Grupo_93742" data-name="Grupo 93742" transform="translate(0.004)">
          <path id="Trazado_149835" data-name="Trazado 149835" d="M438.993,79.119c.515.3.608.768.207,1.118l-76.7,69.776-27.085-15.638,93.378-59.8a2.4,2.4,0,0,1,2.263-.041Z" transform="translate(-335.415 -74.272)" fill="#f4f3eb"/>
        </g>
      </g>
      <path id="Trazado_149836" data-name="Trazado 149836" d="M433.785,77.955l-.811-.469-83.181,67.035,7.5,4.328,76.7-69.776C434.392,78.723,434.3,78.252,433.785,77.955Z" transform="translate(-218.157 -73.107)" fill="#f8f7ef"/>
      <g id="Grupo_93744" data-name="Grupo 93744" transform="translate(98.47 59.583)" style="isolation: isolate">
        <path id="Trazado_149837" data-name="Trazado 149837" d="M366.152,132.786a28.129,28.129,0,0,0-6.905-5.862l-7.314-4.223a35.609,35.609,0,0,0-18.6-4.645c-1.339-.046-5.585,2.674-7.884,4.99a35.332,35.332,0,0,1,16.975,5.182l7.314,4.223a28.1,28.1,0,0,1,6.9,5.862,43.135,43.135,0,0,1,3.671,4.862c3.038-3.257,6.431-5.875,8.772-5.953A34.525,34.525,0,0,0,366.152,132.786Z" transform="translate(-325.447 -118.009)" fill="url(#linear-gradient-12)"/>
        <path id="Trazado_149838" data-name="Trazado 149838" d="M349.737,131.111l-7.314-4.223a35.332,35.332,0,0,0-16.975-5.182l34.865,20.129A33.2,33.2,0,0,0,349.737,131.111Z" transform="translate(-325.447 -116.67)" fill="#c1c0b6"/>
      </g>
      <g id="Grupo_93759" data-name="Grupo 93759" transform="translate(56.002 89.434)">
        <g id="Grupo_93751" data-name="Grupo 93751" transform="translate(26.663)">
          <g id="Grupo_93747" data-name="Grupo 93747" transform="translate(0 6.441)">
            <g id="Grupo_93746" data-name="Grupo 93746">
              <g id="Grupo_93745" data-name="Grupo 93745">
                <path id="Trazado_149839" data-name="Trazado 149839" d="M323.472,145.147c-5.188-2.068-10.526,2.757-9.5,6.328,1.084,1.177,12.33,7.968,14.828,8.476l5.318-8.554S334.657,150.354,323.472,145.147Z" transform="translate(-313.845 -144.65)" fill="url(#linear-gradient-13)"/>
              </g>
              <path id="Trazado_149840" data-name="Trazado 149840" d="M325.8,146.538c.075.089,1.349,2.78.764,2.693-3.387-.5-7.679,2.414-7.873,3.966,2.723,1.443,6.516,3.429,7.112,3.663l6.237-5.777a.476.476,0,0,0,.007-.688C330.825,149.167,328.583,148.11,325.8,146.538Z" transform="translate(-312.091 -143.966)" fill="url(#linear-gradient-14)" style="mix-blend-mode: screen;isolation: isolate"/>
            </g>
            <path id="Trazado_149841" data-name="Trazado 149841" d="M327.406,149.494a8.1,8.1,0,0,0-3.663,6.346c0,2.336,1.64,3.284,3.663,2.116a8.1,8.1,0,0,0,3.665-6.346C331.071,149.272,329.431,148.325,327.406,149.494Z" transform="translate(-310.259 -143.076)" fill="#dad9cf"/>
            <path id="Trazado_149842" data-name="Trazado 149842" d="M327.3,149.819a7.216,7.216,0,0,0-3.264,5.653c0,2.082,1.462,2.925,3.264,1.884a7.212,7.212,0,0,0,3.264-5.653C330.564,149.621,329.1,148.778,327.3,149.819Z" transform="translate(-310.153 -142.939)" fill="url(#linear-gradient-15)"/>
          </g>
          <g id="Grupo_93750" data-name="Grupo 93750" transform="translate(4.513)" style="isolation: isolate">
            <g id="Grupo_93748" data-name="Grupo 93748" transform="translate(7.346 6.991)">
              <path id="Trazado_149843" data-name="Trazado 149843" d="M322.55,145.5l.77-.447,2.61,4.268-.77.447Z" transform="translate(-322.55 -145.054)" fill="#f8f7ef"/>
            </g>
            <g id="Grupo_93749" data-name="Grupo 93749" transform="translate(5.81 2.182)">
              <path id="Trazado_149844" data-name="Trazado 149844" d="M321.423,141.524l1.535,5.256.77-.447-1.268-4.344C322.115,141.83,321.769,141.677,321.423,141.524Z" transform="translate(-321.423 -141.524)" fill="#dad9cf"/>
            </g>
            <path id="Trazado_149845" data-name="Trazado 149845" d="M322.968,142.1c-1.744-.77-3.511-1.478-5.283-2.182l-.527,7.2s6.088,2.929,9.956,4.5l-2.61-4.268Z" transform="translate(-317.158 -139.922)" fill="#c1c0b6"/>
          </g>
        </g>
        <g id="Grupo_93758" data-name="Grupo 93758" transform="translate(0 9.481)">
          <g id="Grupo_93754" data-name="Grupo 93754" transform="translate(0 6.442)">
            <g id="Grupo_93753" data-name="Grupo 93753">
              <g id="Grupo_93752" data-name="Grupo 93752">
                <path id="Trazado_149846" data-name="Trazado 149846" d="M303.9,152.108c-5.186-2.068-10.526,2.757-9.5,6.326,1.083,1.177,12.33,7.968,14.828,8.476l5.317-8.552S315.085,157.314,303.9,152.108Z" transform="translate(-294.273 -151.611)" fill="url(#linear-gradient-16)"/>
              </g>
              <path id="Trazado_149847" data-name="Trazado 149847" d="M306.222,153.5c.076.089,1.349,2.78.766,2.695-3.388-.505-7.681,2.413-7.874,3.964,2.723,1.443,6.517,3.43,7.114,3.663l6.235-5.777a.475.475,0,0,0,.007-.688C311.252,156.127,309.01,155.07,306.222,153.5Z" transform="translate(-292.519 -150.927)" fill="url(#linear-gradient-17)" style="mix-blend-mode: screen;isolation: isolate"/>
            </g>
            <path id="Trazado_149848" data-name="Trazado 149848" d="M307.835,156.454a8.1,8.1,0,0,0-3.664,6.347c0,2.336,1.642,3.283,3.664,2.116a8.1,8.1,0,0,0,3.665-6.347C311.5,156.233,309.858,155.285,307.835,156.454Z" transform="translate(-290.687 -150.038)" fill="#dad9cf"/>
            <path id="Trazado_149849" data-name="Trazado 149849" d="M307.728,156.779a7.216,7.216,0,0,0-3.264,5.653c0,2.082,1.462,2.925,3.264,1.884a7.215,7.215,0,0,0,3.264-5.653C310.992,156.582,309.53,155.738,307.728,156.779Z" transform="translate(-290.581 -149.9)" fill="url(#linear-gradient-18)"/>
          </g>
          <g id="Grupo_93757" data-name="Grupo 93757" transform="translate(4.513)" style="isolation: isolate">
            <g id="Grupo_93755" data-name="Grupo 93755" transform="translate(7.345 6.992)">
              <path id="Trazado_149850" data-name="Trazado 149850" d="M302.978,152.462l.77-.447,2.61,4.268-.77.447Z" transform="translate(-302.978 -152.014)" fill="#f8f7ef"/>
            </g>
            <g id="Grupo_93756" data-name="Grupo 93756" transform="translate(5.809 2.182)">
              <path id="Trazado_149851" data-name="Trazado 149851" d="M301.85,148.484l1.537,5.257.77-.448-1.27-4.344C302.543,148.791,302.2,148.637,301.85,148.484Z" transform="translate(-301.85 -148.484)" fill="#dad9cf"/>
            </g>
            <path id="Trazado_149852" data-name="Trazado 149852" d="M303.395,149.064c-1.742-.77-3.509-1.478-5.283-2.182l-.526,7.2s6.087,2.929,9.956,4.5l-2.61-4.268Z" transform="translate(-297.586 -146.882)" fill="#c1c0b6"/>
          </g>
        </g>
      </g>
      <g id="Grupo_93761" data-name="Grupo 93761" transform="translate(0 65.105)" style="isolation: isolate">
        <path id="Trazado_149853" data-name="Trazado 149853" d="M263.5,178.131a2.428,2.428,0,0,1-1.941-.11l-7.938-4.583a.774.774,0,0,1-.455-.639l0,1.287a.773.773,0,0,0,.455.639l7.939,4.583a2.433,2.433,0,0,0,1.941.112l120.028-44.59,0-1.287Z" transform="translate(-253.164 -117.904)" fill="#dad9cf"/>
        <g id="Grupo_93760" data-name="Grupo 93760" transform="translate(0.004)">
          <path id="Trazado_149854" data-name="Trazado 149854" d="M356.446,122.063c8.875,1.437,21.218,7.75,27.085,15.638L263.5,182.29a2.428,2.428,0,0,1-1.941-.11l-7.938-4.583c-.636-.368-.6-.973.072-1.317Z" transform="translate(-253.167 -122.063)" fill="#f4f3eb"/>
        </g>
      </g>
      <path id="Trazado_149855" data-name="Trazado 149855" d="M258.594,178.891l1,.578a2.428,2.428,0,0,0,1.941.11L381.565,134.99a31.5,31.5,0,0,0-5.324-5.446Z" transform="translate(-251.197 -54.247)" fill="#f8f7ef"/>
      <path id="Trazado_149856" data-name="Trazado 149856" d="M399.167,112.072l-4.287-1.947.223-.143,4.1,1.861,19.12-13.153-3.3-1.466.226-.144,3.342,1.488a.117.117,0,0,1,.065.093.112.112,0,0,1-.048.1l-19.335,13.3C399.2,112.082,399.182,112.078,399.167,112.072Zm22.593-15.5c.064-.02,20.684-14.2,20.684-14.2a.108.108,0,0,0,.048-.1.11.11,0,0,0-.065-.093l-2.3-1.024-.226.144,2.253,1-20.4,14.036-3.146-1.4-.226.146,3.338,1.485A.132.132,0,0,0,421.76,96.572ZM267.945,184.132c.049-.011,25.908-12.9,25.908-12.9a.108.108,0,0,0,.061-.1.113.113,0,0,0-.065-.1l-3.487-1.552-.253.134,3.433,1.527-25.6,12.754-2.633-1.2-.251.134,2.84,1.29A.132.132,0,0,0,267.945,184.132Zm29.714-14.808c.05-.011,21.111-10.5,21.111-10.5a.108.108,0,0,0,.061-.1.113.113,0,0,0-.065-.1l-4.237-1.887-.253.133,4.182,1.862-20.8,10.363-3.554-1.582-.252.133,3.763,1.674A.107.107,0,0,0,297.659,169.324Z" transform="translate(-248.855 -71.78)" fill="#c1c0b6" opacity="0.4"/>
    </g>
    <g id="Grupo_93768" data-name="Grupo 93768" transform="translate(128.456 103.569)">
      <path id="Trazado_149857" data-name="Trazado 149857" d="M349.922,149.636l14.423,8.326c-.432-2.2.01-5.738,2.567-9.9L352.4,139.68C350.644,142.533,349.363,146.378,349.922,149.636Z" transform="translate(-346.614 -139.059)" fill="url(#linear-gradient-19)"/>
      <g id="Grupo_93767" data-name="Grupo 93767" style="isolation: isolate">
        <g id="Grupo_93764" data-name="Grupo 93764" transform="translate(5.84 0.978)" style="isolation: isolate">
          <g id="Grupo_93763" data-name="Grupo 93763" style="isolation: isolate">
            <path id="Trazado_149858" data-name="Trazado 149858" d="M365.986,148.394l-13.345-7.757a4.662,4.662,0,0,0-.9-.695l13.346,7.755a4.566,4.566,0,0,1,.9.7Z" transform="translate(-351.745 -139.942)" fill="#a9a8a1"/>
          </g>
        </g>
        <g id="Grupo_93765" data-name="Grupo 93765" transform="translate(0 1.126)">
          <path id="Trazado_149859" data-name="Trazado 149859" d="M360.806,148.2l-13.346-7.756v-.392l13.346,7.756Z" transform="translate(-347.458 -140.051)" fill="#c1c0b6"/>
        </g>
        <path id="Trazado_149860" data-name="Trazado 149860" d="M353.516,139.789a3.975,3.975,0,0,0-.47-.234,6.536,6.536,0,0,0-5.56.772c-.039.023,13.307,7.779,13.307,7.779,2.069-1.15,4.042-1.424,5.6-.8a3.893,3.893,0,0,1,.471.234Z" transform="translate(-347.448 -139.224)" fill="#f8f7ef"/>
        <g id="Grupo_93766" data-name="Grupo 93766" transform="translate(13.346 7.756)">
          <path id="Trazado_149861" data-name="Trazado 149861" d="M357.295,146.02a6.538,6.538,0,0,1,5.558-.772,4.445,4.445,0,0,1,1.41.96l-.272.383a4.091,4.091,0,0,0-1.361-.921,6.2,6.2,0,0,0-5.333.744c-.04.022-.041-.371-.041-.371Z" transform="translate(-357.255 -144.918)" fill="#d0cfc8"/>
        </g>
      </g>
    </g>
    <g id="Grupo_93769" data-name="Grupo 93769" transform="translate(71.386 62.892)">
      <path id="Trazado_149862" data-name="Trazado 149862" d="M378.79,120.763a2.342,2.342,0,0,0-1.058,1.834c0,.676.474.949,1.058.612a2.342,2.342,0,0,0,1.059-1.834C379.848,120.7,379.374,120.426,378.79,120.763Z" transform="translate(-279.422 -105.288)" fill="#dad9cf" opacity="0.4"/>
      <path id="Trazado_149863" data-name="Trazado 149863" d="M391.169,109.51a2.338,2.338,0,0,0-1.06,1.834c0,.676.474.95,1.06.612a2.342,2.342,0,0,0,1.058-1.835C392.227,109.445,391.753,109.172,391.169,109.51Z" transform="translate(-274.938 -109.365)" fill="#dad9cf" opacity="0.4"/>
      <path id="Trazado_149864" data-name="Trazado 149864" d="M306.624,157.982a2.34,2.34,0,0,0-1.058,1.834c0,.676.474.949,1.058.612a2.342,2.342,0,0,0,1.059-1.834C307.683,157.917,307.209,157.644,306.624,157.982Z" transform="translate(-305.566 -91.804)" fill="#dad9cf" opacity="0.4"/>
      <path id="Trazado_149865" data-name="Trazado 149865" d="M326.223,150.889a2.343,2.343,0,0,0-1.059,1.835c0,.674.474.948,1.059.61a2.34,2.34,0,0,0,1.058-1.834C327.281,150.824,326.807,150.551,326.223,150.889Z" transform="translate(-298.466 -94.374)" fill="#dad9cf" opacity="0.4"/>
    </g>
  </g>
  <g id="Grupo_94286" data-name="Grupo 94286" transform="translate(52.032 43.715)">
    <g id="Grupo_94285" data-name="Grupo 94285">
      <path id="Trazado_150581" data-name="Trazado 150581" d="M292.59,95.194l-.515-.3a.7.7,0,0,0-.575-.135c-.135.054-.2.206-.2.455v1.5a1.253,1.253,0,0,0,.2.688,1.642,1.642,0,0,0,.575.53l.515.3a.7.7,0,0,0,.574.131c.136-.056.206-.206.206-.451v-.222a.185.185,0,0,0-.1-.163l-.4-.229c-.067-.038-.1-.022-.1.048v.193c0,.1-.022.159-.064.177s-.114,0-.215-.06l-.32-.185a.582.582,0,0,1-.21-.185.463.463,0,0,1-.064-.251V95.59c0-.1.022-.159.064-.177s.112,0,.21.057l.32.185a.586.586,0,0,1,.215.188.459.459,0,0,1,.064.251v.193a.176.176,0,0,0,.1.161l.4.229c.069.04.1.026.1-.044v-.222a1.25,1.25,0,0,0-.206-.687A1.65,1.65,0,0,0,292.59,95.194Z" transform="translate(-291.297 -94.74)" fill="#3f3b34"/>
      <path id="Trazado_150582" data-name="Trazado 150582" d="M294.482,96.235l-.627-.362c-.072-.042-.12-.037-.142.016l-.745,2.406a.1.1,0,0,0,.056.132l.454.262c.031.018.053.025.068.018s.025-.026.03-.06l.132-.443.921.531.132.6a.25.25,0,0,0,.029.094.188.188,0,0,0,.07.063l.454.262c.057.033.076.011.057-.067l-.747-3.265A.266.266,0,0,0,294.482,96.235Zm-.659,1.553.339-1.167c.019.011.358,1.571.358,1.571Z" transform="translate(-290.694 -94.34)" fill="#3f3b34"/>
      <path id="Trazado_150583" data-name="Trazado 150583" d="M296.537,99.409c.281.027.42-.128.42-.484v-.368a1.254,1.254,0,0,0-.207-.692,1.666,1.666,0,0,0-.576-.534l-1.123-.648c-.065-.038-.1-.025-.1.042V99.56a.176.176,0,0,0,.1.157l.4.232c.067.038.1.025.1-.042v-.967c0-.034.019-.041.057-.019l.316.183.471,1.291a.317.317,0,0,0,.061.116.571.571,0,0,0,.123.09l.383.221c.082.046.109.025.08-.067Zm-.178-.806c0,.094-.025.15-.072.165a.314.314,0,0,1-.221-.065l-.463-.267a.09.09,0,0,1-.052-.082v-.812c0-.034.018-.041.052-.022l.463.268a.627.627,0,0,1,.221.193.443.443,0,0,1,.072.253Z" transform="translate(-289.973 -94.044)" fill="#3f3b34"/>
      <path id="Trazado_150584" data-name="Trazado 150584" d="M298,98.318l-.5-.287a.7.7,0,0,0-.575-.135c-.136.054-.2.206-.2.454v1.5a1.239,1.239,0,0,0,.2.688,1.659,1.659,0,0,0,.575.531l.5.289a.694.694,0,0,0,.572.129c.135-.057.2-.207.2-.452v-.787a.189.189,0,0,0-.108-.172l-.826-.477c-.067-.038-.1-.025-.1.042v.32a.173.173,0,0,0,.1.157l.282.163a.092.092,0,0,1,.053.082v.3c0,.1-.022.161-.061.18s-.113,0-.213-.059l-.308-.178a.6.6,0,0,1-.21-.184.465.465,0,0,1-.064-.252V98.724c0-.1.022-.159.064-.178s.113,0,.21.057l.308.177a.623.623,0,0,1,.213.187.484.484,0,0,1,.061.251v.113a.177.177,0,0,0,.1.161l.4.232c.065.038.1.023.1-.046v-.142a1.25,1.25,0,0,0-.2-.685A1.648,1.648,0,0,0,298,98.318Z" transform="translate(-289.331 -93.605)" fill="#3f3b34"/>
      <path id="Trazado_150585" data-name="Trazado 150585" d="M300.409,99.906a1.663,1.663,0,0,0-.576-.531l-.529-.305a.7.7,0,0,0-.575-.134c-.135.055-.2.206-.2.454v1.5a1.25,1.25,0,0,0,.2.688,1.658,1.658,0,0,0,.575.531l.529.305a.706.706,0,0,0,.576.134c.135-.055.2-.206.2-.454v-1.5A1.247,1.247,0,0,0,300.409,99.906Zm-.4,1.809c0,.1-.022.161-.064.178s-.113,0-.214-.061l-.335-.193a.584.584,0,0,1-.213-.185.472.472,0,0,1-.061-.251V99.764q0-.151.061-.18c.041-.019.112,0,.213.059l.335.193a.605.605,0,0,1,.214.188.464.464,0,0,1,.064.252Z" transform="translate(-288.678 -93.228)" fill="#3f3b34"/>
    </g>
    <path id="Trazado_150586" data-name="Trazado 150586" d="M303.23,104,291.3,97.106v3.526Z" transform="translate(-291.297 -93.883)" fill="#a22b1d"/>
  </g>
</svg>
